<svg xmlns="http://www.w3.org/2000/svg" width="200.818" height="252.018" viewBox="0 0 200.818 252.018">
  <g id="_4803958_39241" data-name="4803958_39241" transform="translate(-429.025 -415.742)">
    <g id="Groupe_51" data-name="Groupe 51" transform="translate(429.025 379.276)">
      <g id="Groupe_50" data-name="Groupe 50" transform="translate(0 0)">
        <g id="Groupe_2" data-name="Groupe 2" transform="translate(69.812 104.095)">
          <g id="Groupe_1" data-name="Groupe 1" transform="translate(1.193 1.176)">
            <path id="Tracé_1" data-name="Tracé 1" d="M995.524,1519.966s74.875,5.286,112.723-74.217c35.728-75.044-24.492-83.823-47.038-63.179C964.218,1471.379,995.524,1519.966,995.524,1519.966Z" transform="translate(-990.706 -1372.927)" fill="#1e201e"/>
          </g>
          <path id="Tracé_2" data-name="Tracé 2" d="M986.431,1504.331c1.366,7.847,3.931,12.022,4.172,12.4a1.291,1.291,0,0,0,.153.2.182.182,0,0,0,.019.016c.033.031.074.062.109.092s.07.058.109.081.078.036.113.055a.651.651,0,0,0,.134.057.909.909,0,0,0,.128.031,1.332,1.332,0,0,0,.136.025c.005,0,.013,0,.018,0a88.82,88.82,0,0,0,16.15-.839c24.877-3.243,70.646-17.175,97.726-74.05,16.409-34.472,11.792-52.817,5.024-62.135-6.176-8.5-16.826-12.971-28.926-12.308a.9.9,0,0,0-.1.008c-1.064.061-2.138.144-3.225.287a39.827,39.827,0,0,0-21.678,9.589q-5.1,4.673-9.728,9.193c-.028.026-.052.051-.08.077q-8.46,8.265-15.444,16.016a1.187,1.187,0,0,0-.281.313,240.361,240.361,0,0,0-27.5,36.386,1.173,1.173,0,0,0-.6,1.01c-9.6,16.146-14.058,29.47-15.94,39.663a67.726,67.726,0,0,0-.556,23.417A1.211,1.211,0,0,0,986.431,1504.331Zm107.908-132.543a1,1,0,0,0-.109.339c-.138.4-1.228,3.286-3.469,8.207a33.893,33.893,0,0,0-11.583-5.4c1.468-2.291,2.482-3.877,2.969-4.64A36.008,36.008,0,0,1,1094.339,1371.788Zm-46.381,17.385c-2.537,3.936-5.79,9.038-9.483,14.94a36.146,36.146,0,0,0-4.077-.947Q1040.619,1396.372,1047.958,1389.173Zm2.59.374a47.884,47.884,0,0,1,13.421,4.754c-3.361,5.254-7.088,11.085-11.054,17.287a43.577,43.577,0,0,0-12.09-6.709C1044.673,1398.726,1048.021,1393.47,1050.549,1389.547Zm-33.232,34.072a25.011,25.011,0,0,1,8.074,1.854c-3.273,5.466-6.617,11.165-9.92,16.932a26.54,26.54,0,0,0-9.2-2.662C1009.408,1434.643,1013.066,1429.267,1017.317,1423.619Zm-12.432,18.419a23.933,23.933,0,0,1,9.4,2.446c-3.222,5.673-6.386,11.4-9.372,17.011a16.89,16.89,0,0,0-8.689-2.687A150.464,150.464,0,0,1,1004.885,1442.037Zm100.725-59.505c-.715,1.892-2.107,5.452-4.2,10.253a37.077,37.077,0,0,0-8.7-10.909,88.715,88.715,0,0,0,3.709-8.974A26.826,26.826,0,0,1,1105.61,1382.532Zm-13.932,1.558a35.884,35.884,0,0,1,8.483,11.5c-2.873,6.379-6.8,14.466-11.811,23.47a54.645,54.645,0,0,0-7.741-13.789C1085.391,1396.844,1089.066,1389.623,1091.678,1384.09Zm-38.217,31.041a44.622,44.622,0,0,1,3.8,3.776,50.838,50.838,0,0,1,6.52,9.268c-4.226,6.4-8.951,13.2-14.217,20.334a54.96,54.96,0,0,0-8.393-14.141C1045.39,1427.761,1049.53,1421.284,1053.461,1415.131Zm-26.378,41.343a54.017,54.017,0,0,1,5.788,13.388q-7.207,8.732-15.419,17.853a57.642,57.642,0,0,0-2.527-12.121C1018.835,1469.438,1022.925,1463,1027.083,1456.474Zm-13.207,16.359a26.465,26.465,0,0,0-6.086-9.117c-.3-.282-.605-.537-.909-.788,3.029-5.7,6.25-11.521,9.534-17.3a28.6,28.6,0,0,1,5.163,3.952,33.743,33.743,0,0,1,4.072,4.743C1021.635,1460.63,1017.674,1466.854,1013.876,1472.833Zm-17.2,41.929c1.891-.856,3.749-1.766,5.588-2.7-.053.331-.113.635-.177.927-.912.4-1.825.8-2.75,1.189a1.161,1.161,0,0,0-.482.382C998.1,1514.639,997.374,1514.708,996.677,1514.762Zm60.383-22.36q-.031-2.918-.15-5.719a206.412,206.412,0,0,0,16.065-14.449q-.023,3.2-.175,6.544A120.724,120.724,0,0,1,1057.06,1492.4Zm36.332-47.542c-.135-3.136-.418-6.146-.816-9.053,5.282-8.01,9.546-15.395,12.831-21.56q.517,3.838.731,8.051-1.118,3.622-2.617,7.522C1101.175,1433.671,1097.8,1438.874,1093.392,1444.86Zm-40.127,27.61c.266,1.894.49,3.839.684,5.824-4.75,4.434-9.812,8.76-15.2,12.887q-.128-2.09-.314-4.1C1043.732,1482.365,1048.672,1477.453,1053.265,1472.47Zm-15.124,11.686a92.5,92.5,0,0,0-2.615-13.867q7.169-8.74,13.29-16.9a96.871,96.871,0,0,1,3.979,16.02C1048.222,1474.474,1043.336,1479.425,1038.141,1484.155Zm-20.249,18.818a179.024,179.024,0,0,0,18.317-13.934c.1,1.266.182,2.556.249,3.863a183.941,183.941,0,0,1-18.665,12.188C1017.83,1504.381,1017.866,1503.669,1017.893,1502.974Zm-2.534,3.473q-5.189,2.839-10.678,5.375c.046-.34.088-.7.125-1.064q5.49-2.912,10.658-6.209C1015.433,1505.172,1015.4,1505.806,1015.358,1506.446Zm40-36.283a251.282,251.282,0,0,0,15.929-19.715q.713,4.044,1.123,8.406a229.72,229.72,0,0,1-16.267,17.36Q1055.818,1473.106,1055.363,1470.164ZM1073.2,1447.8c2.78-3.908,5.342-7.726,7.674-11.377,2.505-3.919,4.826-7.768,6.979-11.5a74.48,74.48,0,0,1,2.258,10.339,257.782,257.782,0,0,1-15.582,21.058Q1074.022,1451.9,1073.2,1447.8Zm16.254-25.686c5.013-8.895,9.01-17,12.009-23.581a61.572,61.572,0,0,1,3.318,11.817c-3.137,6.087-7.368,13.649-12.752,21.981A73.05,73.05,0,0,0,1089.451,1422.116Zm1.657,25.793a225.27,225.27,0,0,1-15.841,18.6q-.116-3.541-.41-6.9a258.523,258.523,0,0,0,15.705-20.795Q1091.028,1443.188,1091.108,1447.909Zm-18.152,21a204.309,204.309,0,0,1-16.193,14.858q-.132-2.321-.328-4.567a230.37,230.37,0,0,0,16.25-17.029Q1072.905,1465.448,1072.957,1468.906ZM1039,1503.172q.027-1.87.017-3.687a183.417,183.417,0,0,0,15.587-10.969c.058,1.817.1,3.662.1,5.542A118.694,118.694,0,0,1,1039,1503.172Zm-.024-6.453c-.019-.906-.048-1.8-.081-2.692,5.416-4.077,10.523-8.353,15.314-12.75q.164,2.134.275,4.335A183.388,183.388,0,0,1,1038.976,1496.719Zm-2.342,1.474a165.344,165.344,0,0,1-19.026,10.111c.008-.135.023-.276.031-.407a184.954,184.954,0,0,0,18.94-12.153C1036.6,1496.554,1036.618,1497.37,1036.633,1498.193Zm-21.476,11.182c-.42.181-.839.367-1.263.546.424-.225.848-.447,1.272-.675C1015.164,1509.29,1015.163,1509.334,1015.157,1509.375Zm-17.216,2.179q2.394-2.374,4.716-4.73c-.008.854-.034,1.672-.085,2.442C1001.05,1510.057,999.5,1510.815,997.942,1511.554Zm7.021-7.088q5.463-5.618,10.532-11.131.187,3.846.074,8.342-5.139,3.336-10.587,6.3C1005.02,1506.862,1005.013,1505.683,1004.963,1504.466Zm12.766-13.577q8.5-9.353,15.886-18.283a96.068,96.068,0,0,1,2.322,13.516,177.11,177.11,0,0,1-17.966,13.954C1018.016,1496.826,1017.933,1493.771,1017.729,1490.889Zm10.773-36.641c3.765-5.915,7.57-11.885,11.33-17.776a54.766,54.766,0,0,1,8.024,14.332q-6.093,8.15-13.128,16.8A52.9,52.9,0,0,0,1028.5,1454.248Zm36.522-23.715a71.169,71.169,0,0,1,5.621,16.592,252.947,252.947,0,0,1-15.787,19.965,92.6,92.6,0,0,0-4.288-16.044C1056.005,1443.736,1060.812,1436.86,1065.024,1430.533Zm1.5-2.263c2.635-4.01,5.027-7.788,7.176-11.292q3.023-4.923,5.626-9.462a53.441,53.441,0,0,1,7.5,14.251c-4.105,7.2-8.88,14.91-14.348,22.761A70.831,70.831,0,0,0,1066.521,1428.27Zm40.517-42.841a37.822,37.822,0,0,1,2.809,14.453c-.836,1.861-1.947,4.245-3.343,7.063a58.681,58.681,0,0,0-3.717-11.362C1104.689,1391.294,1106.1,1387.816,1107.038,1385.429Zm2.532,20.635a74.246,74.246,0,0,1-1.619,9.588c-.194-1.693-.417-3.354-.694-4.949C1108.11,1409.036,1108.882,1407.483,1109.57,1406.064Zm-11.716,36.642q-2.112,4.3-4.367,8.268c0-.773.01-1.542,0-2.3C1095.062,1446.6,1096.515,1444.6,1097.854,1442.706Zm-22.587,33.457q.1-3.225.065-6.322a226.587,226.587,0,0,0,15.776-18.077c-.017,1.127-.047,2.264-.1,3.418A135,135,0,0,1,1075.267,1476.162Zm-57.895,34.995c.005-.056.009-.109.014-.168a166.9,166.9,0,0,0,19.262-10.042c0,1.1-.014,2.211-.036,3.341A121.94,121.94,0,0,1,1017.373,1511.157Zm-25.465,3c-.162-.342-.345-.746-.544-1.219,2.759-4.432,6.248-9.986,10.243-16.317a44.785,44.785,0,0,1,.96,6.918Q997.413,1508.818,991.908,1514.162Zm11.426-20.272c3.071-4.86,6.4-10.118,9.9-15.636a62.2,62.2,0,0,1,2.04,11.849q-5.078,5.553-10.538,11.215A43.094,43.094,0,0,0,1003.334,1493.89Zm-.975-2.881a21.208,21.208,0,0,0-2.992-5.345,14.418,14.418,0,0,0-2.578-2.541c2.621-5.7,5.663-11.787,8.959-18.052.159.14.318.27.473.418a25.139,25.139,0,0,1,6.068,9.846C1008.794,1480.843,1005.454,1486.114,1002.358,1491.009Zm25.26-64.552a34.284,34.284,0,0,1,8.96,6.4c.563.556,1.11,1.14,1.65,1.737-3.714,5.818-7.476,11.721-11.2,17.577a37.224,37.224,0,0,0-3.872-4.35,31.591,31.591,0,0,0-5.556-4.25C1020.93,1437.737,1024.312,1431.98,1027.618,1426.457Zm1.236-2.059c3.746-6.232,7.365-12.124,10.668-17.428a41.734,41.734,0,0,1,12.1,6.632c-3.866,6.052-7.932,12.421-12.078,18.92-.453-.485-.909-.964-1.38-1.422A36.942,36.942,0,0,0,1028.854,1424.4Zm37.178-28.932a45.8,45.8,0,0,1,10.758,8.9c.329.373.633.765.951,1.148-3.515,6.152-7.661,13-12.493,20.427a52.732,52.732,0,0,0-6.264-8.663,47.566,47.566,0,0,0-4.232-4.174C1058.8,1406.773,1062.607,1400.818,1066.032,1395.466Zm1.295-2.023,10.48-16.374a31.581,31.581,0,0,1,11.945,5.453c-2.45,5.242-5.979,12.295-10.762,20.8-.156-.182-.3-.373-.46-.552A48.5,48.5,0,0,0,1067.327,1393.443Zm-77,116.694a45.125,45.125,0,0,1-1.534-6.3,132,132,0,0,1,6.979-18.485,12,12,0,0,1,1.741,1.776,20.532,20.532,0,0,1,3.252,6.4C996.744,1499.9,993.2,1505.536,990.325,1510.138Zm-2.211-12.1a68.04,68.04,0,0,1,.753-14.887,9.937,9.937,0,0,1,4.871.908C991.477,1489.09,989.563,1493.8,988.113,1498.036Zm1.178-17.374a99.894,99.894,0,0,1,5.919-19.465,14.049,14.049,0,0,1,8.594,2.393c-3.329,6.327-6.411,12.494-9.073,18.283a12.006,12.006,0,0,0-5.455-1.12C989.282,1480.72,989.283,1480.691,989.291,1480.662Zm43.179-75.372a31.086,31.086,0,0,1,4.684.945c-3.27,5.238-6.83,11.035-10.514,17.16a29.188,29.188,0,0,0-7.611-2.023C1022.995,1416.228,1027.458,1410.864,1032.47,1405.29Zm25.621-25.708a30.4,30.4,0,0,1,3.468-2.719,39.628,39.628,0,0,1,13.747-.272c-2.579,4.029-6.011,9.388-10.036,15.676a49.032,49.032,0,0,0-13.328-4.882c1.919-2.967,3.152-4.845,3.468-5.326C1056.3,1381.236,1057.187,1380.414,1058.091,1379.582Zm20.383-8.987c.243-.032.479-.046.718-.075-.622.972-1.456,2.275-2.478,3.866a41.565,41.565,0,0,0-9.559-.622A41.087,41.087,0,0,1,1078.474,1370.595Z" transform="translate(-985.597 -1367.89)" fill="#1e201e"/>
        </g>
        <g id="Groupe_6" data-name="Groupe 6" transform="translate(0 147.33)">
          <path id="Tracé_3" data-name="Tracé 3" d="M772.353,1557.848s-34.914,24.051-47.182,54.244l9.438,11.332s37.928-21.824,45.6-39.167S786.737,1542.74,772.353,1557.848Z" transform="translate(-716.156 -1553.09)" fill="#8c6043"/>
          <g id="Groupe_3" data-name="Groupe 3" transform="translate(0 59.002)">
            <path id="Tracé_4" data-name="Tracé 4" d="M695.571,1805.827s-7.444.249-8.926,7.11c-.978,4.529,6.338,12.855,10.258,12.731,8.819-.276,8.106-8.509,8.106-8.509Z" transform="translate(-686.557 -1805.827)" fill="#0c131a"/>
          </g>
          <path id="Tracé_5" data-name="Tracé 5" d="M1203.219,1557.964s34.98,24.021,47.246,54.214l-9.434,11.332s-37.929-21.824-45.605-39.167S1188.835,1542.857,1203.219,1557.964Z" transform="translate(-1073.014 -1553.176)" fill="#8c6043"/>
          <g id="Groupe_5" data-name="Groupe 5" transform="translate(168.002 59.002)">
            <g id="Groupe_4" data-name="Groupe 4">
              <path id="Tracé_6" data-name="Tracé 6" d="M1415.645,1805.827s7.444.249,8.927,7.11c.98,4.529-6.342,12.855-10.257,12.731-8.822-.276-8.1-8.509-8.1-8.509Z" transform="translate(-1406.197 -1805.827)" fill="#0c131a"/>
            </g>
          </g>
        </g>
        <path id="Tracé_7" data-name="Tracé 7" d="M927.251,1565.344c-.4-35.661-21.663-42.423-21.663-42.423l-29.463-9.347-29.458,9.347s-21.267,6.761-21.662,42.423c-.365,32.9-33.1,74.75,7.678,95.144,9.686,4.846,24.91,2.169,43.442,2.169s33.634,2.421,43.442-2.169C965.651,1638.929,927.615,1598.24,927.251,1565.344Z" transform="translate(-782.893 -1375.469)" fill="#9e6c4d"/>
        <path id="Tracé_8" data-name="Tracé 8" d="M927.251,1565.344c-.4-35.661-21.663-42.423-21.663-42.423l-26.553-8.427,22.347,7.537s18.1,6.123,18.443,38.4c.308,29.771,32.694,66.6-6.539,86.115-8.352,4.153-21.206,1.964-36.988,1.964s-28.739,2.42-36.982-1.964c-34.715-18.462-6.852-56.344-6.542-86.115.337-32.28,18.444-38.4,18.444-38.4l25-8.43-.089-.028-29.458,9.347s-21.267,6.761-21.662,42.423c-.365,32.9-33.1,74.75,7.678,95.144,9.686,4.846,24.91,2.169,43.442,2.169s33.634,2.421,43.442-2.169C965.651,1638.928,927.615,1598.24,927.251,1565.344Z" transform="translate(-782.893 -1375.469)" fill="#cbc1bd"/>
        <path id="Tracé_9" data-name="Tracé 9" d="M909.526,2114.8h29.09s3.061-.28,3.341-5.545-6.031-7.75-9.958-4.972c0,0-5.613-5.85-10.8.146,0,0-5.75-5.118-9.539,1.611,0,0-6.769.467-5.037,6.831A2.886,2.886,0,0,0,909.526,2114.8Z" transform="translate(-855.03 -1826.314)" fill="#1e201e"/>
        <path id="Tracé_10" data-name="Tracé 10" d="M1145.339,2114.8h-29.092s-3.058-.28-3.338-5.545,6.03-7.75,9.958-4.972c0,0,5.611-5.85,10.8.146,0,0,5.75-5.118,9.539,1.611,0,0,6.766.467,5.036,6.831A2.886,2.886,0,0,1,1145.339,2114.8Z" transform="translate(-1013.37 -1826.314)" fill="#1e201e"/>
        <g id="Groupe_49" data-name="Groupe 49" transform="translate(19.071)">
          <path id="Tracé_11" data-name="Tracé 11" d="M856.662,1045.789c-6.271-7.6-18.749-18.259-25.418-15.982-7.636,2.611-4.818,21.222-.576,28.708A55.375,55.375,0,0,1,856.662,1045.789Z" transform="matrix(0.438, -0.899, 0.899, 0.438, -1290.572, 373.104)" fill="#be8060"/>
          <path id="Tracé_12" data-name="Tracé 12" d="M872.961,1076.064c-4.367-4.665-11.155-9.915-14.994-8.6-4.386,1.5-3.5,11.068-1.338,16.695A55.048,55.048,0,0,1,872.961,1076.064Z" transform="matrix(0.438, -0.899, 0.899, 0.438, -1326.125, 379.965)" fill="#d7ae8a"/>
          <path id="Tracé_13" data-name="Tracé 13" d="M1192.521,1047.735c6.151-7.692,18.466-18.546,25.169-16.371,7.674,2.491,5.144,21.143,1.019,28.694A55.4,55.4,0,0,0,1192.521,1047.735Z" transform="translate(-1099.473 -994.616)" fill="#be8060"/>
          <path id="Tracé_14" data-name="Tracé 14" d="M1215.955,1078.135c4.294-4.729,11-10.084,14.862-8.83,4.408,1.431,3.669,11.012,1.6,16.669A55.238,55.238,0,0,0,1215.955,1078.135Z" transform="translate(-1117.436 -1023.773)" fill="#d7ae8a"/>
          <g id="Groupe_48" data-name="Groupe 48" transform="translate(4.206 38.403)">
            <g id="Groupe_47" data-name="Groupe 47">
              <path id="Tracé_15" data-name="Tracé 15" d="M908.54,1121.414c-17.509-36.321-54.286-34.908-54.286-34.908s-36.775-1.413-54.284,34.908-21.329,80.9,7.026,95.561c24.116,12.464,70.4,12.464,94.517,0C929.872,1202.318,926.053,1157.738,908.54,1121.414Z" transform="translate(-786.262 -1086.499)" fill="#ac7654"/>
              <g id="Groupe_14" data-name="Groupe 14" transform="translate(29.039 43.881)">
                <path id="Tracé_16" data-name="Tracé 16" d="M976.625,1281.433c-4.282-7.619-10.482-8.363-15.718-5.239-6.042,3.6-7.51,11.582-11.266,11.6-3.756-.016-5.225-8-11.268-11.6-5.232-3.125-11.432-2.38-15.716,5.239-5.331,9.484-15.282,42.038-10.936,58.181,3.6,13.354,12.813,23.017,37.794,23.017s34.45-9.663,38.046-23.017C991.908,1323.471,981.957,1290.917,976.625,1281.433Z" transform="translate(-910.651 -1274.463)" fill="#be8060"/>
                <path id="Tracé_17" data-name="Tracé 17" d="M1020.288,1351.43c-3.771-14.542-15.261-14.333-18.534-14.333s-15.253.3-18.532,14.333c-4.074,17.45-13.25,53.919,18.532,53.919S1024.783,1368.761,1020.288,1351.43Z" transform="translate(-962.889 -1322.475)" fill="#d7ae8a"/>
                <path id="Tracé_18" data-name="Tracé 18" d="M1056.282,1557.5l-6.465,1.9v7.221c0,.641.782,4.825,6.465,4.825s6.466-4.184,6.466-4.825V1559.4Z" transform="translate(-1017.328 -1491.424)" fill="#f8f8f9"/>
                <path id="Tracé_19" data-name="Tracé 19" d="M1075.849,1555.506l.388,13.829.516-13.792S1076.918,1553.78,1075.849,1555.506Z" transform="translate(-1037.283 -1489.315)" fill="#c7c3c0"/>
                <g id="Groupe_7" data-name="Groupe 7" transform="translate(22.375 27.751)">
                  <path id="Tracé_20" data-name="Tracé 20" d="M1023.8,1430.8v-37.463h-1.447V1430.8c-9.829,5.7-4.71,5.336.722,1.5C1027.933,1436.674,1033.6,1436.712,1023.8,1430.8Z" transform="translate(-1006.496 -1393.335)" fill="#050504"/>
                </g>
                <path id="Tracé_21" data-name="Tracé 21" d="M1051.424,1357.63c-6.5,0-8.827,2.761-7.652,5.74,2.339,5.957,5.822,6.8,7.652,6.8s5.316-.839,7.658-6.8C1060.252,1360.391,1057.926,1357.63,1051.424,1357.63Z" transform="translate(-1012.471 -1338.215)" fill="#1e201e"/>
                <path id="Tracé_22" data-name="Tracé 22" d="M1060.756,1361.647c1.707.962,2.168,2.4,1.5,3.889-2.343,5.283-5.833,6.03-7.663,6.03a7.465,7.465,0,0,1-5.951-3.136c2.261,4.172,5.136,4.815,6.739,4.815,1.83,0,5.316-.839,7.658-6.8C1063.793,1364.529,1063.087,1362.7,1060.756,1361.647Z" transform="translate(-1016.43 -1341.294)" fill="#57504b"/>
                <g id="Groupe_10" data-name="Groupe 10" transform="translate(15.768 4.854)">
                  <g id="Groupe_8" data-name="Groupe 8">
                    <path id="Tracé_23" data-name="Tracé 23" d="M987.735,1300.029a4.771,4.771,0,1,1-4.773-4.774A4.77,4.77,0,0,1,987.735,1300.029Z" transform="translate(-978.192 -1295.255)" fill="#050504"/>
                    <path id="Tracé_24" data-name="Tracé 24" d="M986.151,1304.058a.649.649,0,1,1-.65-.649A.647.647,0,0,1,986.151,1304.058Z" transform="translate(-983.299 -1301.505)" fill="#f8f8f9"/>
                    <path id="Tracé_25" data-name="Tracé 25" d="M994.868,1298.563a1.207,1.207,0,1,1-1.206-1.209A1.2,1.2,0,0,1,994.868,1298.563Z" transform="translate(-989.124 -1296.864)" fill="#f8f8f9"/>
                  </g>
                  <g id="Groupe_9" data-name="Groupe 9" transform="translate(36.221)">
                    <path id="Tracé_26" data-name="Tracé 26" d="M1142.885,1300.029a4.771,4.771,0,1,1-4.771-4.774A4.769,4.769,0,0,1,1142.885,1300.029Z" transform="translate(-1133.344 -1295.255)" fill="#050504"/>
                    <path id="Tracé_27" data-name="Tracé 27" d="M1141.3,1304.058a.65.65,0,1,1-.651-.649A.649.649,0,0,1,1141.3,1304.058Z" transform="translate(-1138.446 -1301.505)" fill="#f8f8f9"/>
                    <path id="Tracé_28" data-name="Tracé 28" d="M1150.025,1298.563a1.208,1.208,0,1,1-1.208-1.209A1.207,1.207,0,0,1,1150.025,1298.563Z" transform="translate(-1144.279 -1296.864)" fill="#f8f8f9"/>
                  </g>
                </g>
                <g id="Groupe_13" data-name="Groupe 13" transform="translate(32.367 20.671)">
                  <g id="Groupe_11" data-name="Groupe 11">
                    <path id="Tracé_29" data-name="Tracé 29" d="M1056.741,1363.106c-3.46-.346-9.6-.042-6.674,5.262,0,0,.977,1.772,1.885,1.184,1.432-.933-.766-2.569.57-3.948S1060.545,1363.451,1056.741,1363.106Z" transform="translate(-1049.298 -1363.007)" fill="#f8f8f9"/>
                  </g>
                  <g id="Groupe_12" data-name="Groupe 12" transform="translate(10.895 0.92)">
                    <path id="Tracé_30" data-name="Tracé 30" d="M1096.566,1367.065a1.131,1.131,0,0,0,.229,2.075C1098.409,1369.6,1098.207,1366.3,1096.566,1367.065Z" transform="translate(-1095.968 -1366.95)" fill="#f8f8f9"/>
                  </g>
                </g>
              </g>
              <g id="Groupe_16" data-name="Groupe 16" transform="translate(61.84 106.457)">
                <g id="Groupe_15" data-name="Groupe 15">
                  <path id="Tracé_31" data-name="Tracé 31" d="M1052.089,1542.726c-.042-.009-.084-.018-.125-.03s-.026,0,.073.034c-.067-.029.11.1.066.051l.136.234,0-.01-.054.412a.57.57,0,0,0-.2-.768c.153.1.1.084.062.039q.086.113.04.049a.464.464,0,0,0-.165-.165.53.53,0,0,0-.748.407.559.559,0,0,0,.254.624.57.57,0,0,0,.434.06h-.284c-.239-.089-.037-.008.031.011a.613.613,0,0,0,.182.021,1.657,1.657,0,0,0,.3-.048.481.481,0,0,0,0-.922Z" transform="translate(-1051.156 -1542.512)" fill="#050504"/>
                </g>
              </g>
              <g id="Groupe_18" data-name="Groupe 18" transform="translate(62.865 102.445)">
                <g id="Groupe_17" data-name="Groupe 17">
                  <path id="Tracé_32" data-name="Tracé 32" d="M1055.593,1525.537a.856.856,0,0,0-.006.521.339.339,0,0,0,.583,0,.856.856,0,0,0-.006-.521.3.3,0,0,0-.571,0Z" transform="translate(-1055.547 -1525.325)" fill="#050504"/>
                </g>
              </g>
              <g id="Groupe_20" data-name="Groupe 20" transform="translate(58.347 106.505)">
                <g id="Groupe_19" data-name="Groupe 19">
                  <path id="Tracé_33" data-name="Tracé 33" d="M1036.305,1542.972l-.057.193c-.279.934,1.489.339.612-.249l-.088-.059a.238.238,0,0,0-.245,0l-.088.059c-.877.588.89,1.183.612.249l-.057-.193a.36.36,0,0,0-.688,0Z" transform="translate(-1036.193 -1542.717)" fill="#050504"/>
                </g>
              </g>
              <g id="Groupe_22" data-name="Groupe 22" transform="translate(57.032 103.7)">
                <g id="Groupe_21" data-name="Groupe 21">
                  <path id="Tracé_34" data-name="Tracé 34" d="M1030.958,1531.522a.41.41,0,0,0,0-.82.41.41,0,0,0,0,.82Z" transform="translate(-1030.562 -1530.702)" fill="#050504"/>
                </g>
              </g>
              <g id="Groupe_24" data-name="Groupe 24" transform="translate(59.863 103.83)">
                <g id="Groupe_23" data-name="Groupe 23">
                  <path id="Tracé_35" data-name="Tracé 35" d="M1043.31,1531.813v-.255a.311.311,0,0,0-.622,0v.255a.311.311,0,0,0,.622,0Z" transform="translate(-1042.688 -1531.257)" fill="#050504"/>
                </g>
              </g>
              <g id="Groupe_26" data-name="Groupe 26" transform="translate(59.673 100.509)">
                <g id="Groupe_25" data-name="Groupe 25">
                  <path id="Tracé_36" data-name="Tracé 36" d="M1042.375,1517.033c-.219.007-.511.051-.5.342a.482.482,0,0,0,.546.4.165.165,0,0,0,.117-.117.365.365,0,0,0-.05-.285c-.013-.023-.025-.047-.036-.071.015.038.018.045.01.019q-.013-.083,0,.121l-.076.131a.22.22,0,0,1-.157.069h.039c.037,0,.073,0,.11,0a.3.3,0,0,0,0-.607Z" transform="translate(-1041.874 -1517.033)" fill="#050504"/>
                </g>
              </g>
              <g id="Groupe_28" data-name="Groupe 28" transform="translate(74.034 106.752)">
                <g id="Groupe_27" data-name="Groupe 27">
                  <path id="Tracé_37" data-name="Tracé 37" d="M1103.439,1544.051l-.027.2c-.131.957,1.37.326.61-.248l-.083-.063a.241.241,0,0,0-.253,0l-.083.063c-.76.574.741,1.205.61.248l-.027-.2a.39.39,0,0,0-.747,0Z" transform="translate(-1103.387 -1543.773)" fill="#050504"/>
                </g>
              </g>
              <g id="Groupe_30" data-name="Groupe 30" transform="translate(71.507 105.632)">
                <g id="Groupe_29" data-name="Groupe 29">
                  <path id="Tracé_38" data-name="Tracé 38" d="M1093.523,1539.651a1.137,1.137,0,0,0-.1-.462.446.446,0,0,0-.76,0,1.139,1.139,0,0,0-.1.462.478.478,0,0,0,.957,0Z" transform="translate(-1092.564 -1538.977)" fill="#050504"/>
                </g>
              </g>
              <g id="Groupe_32" data-name="Groupe 32" transform="translate(72.393 101.754)">
                <g id="Groupe_31" data-name="Groupe 31">
                  <path id="Tracé_39" data-name="Tracé 39" d="M1096.78,1523.231a.433.433,0,0,0,0-.865.433.433,0,0,0,0,.865Z" transform="translate(-1096.362 -1522.366)" fill="#050504"/>
                </g>
              </g>
              <g id="Groupe_34" data-name="Groupe 34" transform="translate(76.521 103.149)">
                <g id="Groupe_33" data-name="Groupe 33">
                  <path id="Tracé_40" data-name="Tracé 40" d="M1114.043,1528.749a2.282,2.282,0,0,0,.043.61.383.383,0,0,0,.734,0,2.277,2.277,0,0,0,.043-.61.41.41,0,1,0-.82,0Z" transform="translate(-1114.042 -1528.339)" fill="#050504"/>
                </g>
              </g>
              <g id="Groupe_36" data-name="Groupe 36" transform="translate(73.793 104.143)">
                <g id="Groupe_35" data-name="Groupe 35">
                  <path id="Tracé_41" data-name="Tracé 41" d="M1103.091,1533.314c.1-.183.281-.447.094-.635s-.451-.01-.634.095a.395.395,0,1,0,.54.54Z" transform="translate(-1102.358 -1532.597)" fill="#050504"/>
                </g>
              </g>
              <g id="Groupe_38" data-name="Groupe 38" transform="translate(74.897 100.427)">
                <g id="Groupe_37" data-name="Groupe 37">
                  <path id="Tracé_42" data-name="Tracé 42" d="M1107.369,1517.44a3.31,3.31,0,0,0,.326.1.208.208,0,0,0,.252-.252,3.259,3.259,0,0,0-.1-.323.387.387,0,1,0-.476.476Z" transform="translate(-1107.087 -1516.681)" fill="#050504"/>
                </g>
              </g>
              <g id="Groupe_40" data-name="Groupe 40" transform="translate(77.294 107.201)">
                <g id="Groupe_39" data-name="Groupe 39">
                  <path id="Tracé_43" data-name="Tracé 43" d="M1117.814,1546.654a.478.478,0,0,0,0-.956.478.478,0,0,0,0,.956Z" transform="translate(-1117.352 -1545.698)" fill="#050504"/>
                </g>
              </g>
              <g id="Groupe_42" data-name="Groupe 42" transform="translate(55.422 107.049)">
                <g id="Groupe_41" data-name="Groupe 41">
                  <path id="Tracé_44" data-name="Tracé 44" d="M1024.019,1545.761l.224-.015a.342.342,0,1,0,0-.683l-.224-.015a.357.357,0,0,0,0,.714Z" transform="translate(-1023.662 -1545.047)" fill="#050504"/>
                </g>
              </g>
              <g id="Groupe_44" data-name="Groupe 44" transform="translate(56.354 100.829)">
                <g id="Groupe_43" data-name="Groupe 43">
                  <path id="Tracé_45" data-name="Tracé 45" d="M1027.905,1518.919a.258.258,0,0,0,0-.516.258.258,0,0,0,0,.516Z" transform="translate(-1027.656 -1518.403)" fill="#050504"/>
                </g>
              </g>
              <g id="Groupe_46" data-name="Groupe 46" transform="translate(79.95 102.723)">
                <g id="Groupe_45" data-name="Groupe 45">
                  <path id="Tracé_46" data-name="Tracé 46" d="M1129.011,1527.091a.289.289,0,0,0,0-.577.289.289,0,0,0,0,.577Z" transform="translate(-1128.732 -1526.514)" fill="#050504"/>
                </g>
              </g>
            </g>
          </g>
        </g>
      </g>
      <circle id="Ellipse_3" data-name="Ellipse 3" cx="5" cy="5" r="5" transform="translate(62.646 95.727)" fill="#fff"/>
      <circle id="Ellipse_4" data-name="Ellipse 4" cx="3" cy="3" r="3" transform="translate(59.646 107.727)" fill="#fff"/>
      <circle id="Ellipse_5" data-name="Ellipse 5" cx="1.5" cy="1.5" r="1.5" transform="translate(58.646 116.727)" fill="#fff"/>
    </g>
  </g>
</svg>
