<svg xmlns="http://www.w3.org/2000/svg" width="583.849" height="625.569" viewBox="0 0 583.849 625.569">
  <g id="Groupe_52" data-name="Groupe 52" transform="translate(-357.354 -42.168)">
    <g id="_4803958_39241" data-name="4803958_39241" transform="translate(-71.671 -0.024)">
      <g id="Groupe_51" data-name="Groupe 51" transform="translate(429.025 379.276)">
        <g id="Groupe_50" data-name="Groupe 50" transform="translate(0 0)">
          <g id="Groupe_2" data-name="Groupe 2" transform="translate(69.812 104.095)">
            <g id="Groupe_1" data-name="Groupe 1" transform="translate(1.193 1.176)">
              <path id="Tracé_1" data-name="Tracé 1" d="M995.524,1519.966s74.875,5.286,112.723-74.217c35.728-75.044-24.492-83.823-47.038-63.179C964.218,1471.379,995.524,1519.966,995.524,1519.966Z" transform="translate(-990.706 -1372.927)" fill="#1e201e"/>
            </g>
            <path id="Tracé_2" data-name="Tracé 2" d="M986.431,1504.331c1.366,7.847,3.931,12.022,4.172,12.4a1.291,1.291,0,0,0,.153.2.182.182,0,0,0,.019.016c.033.031.074.062.109.092s.07.058.109.081.078.036.113.055a.651.651,0,0,0,.134.057.909.909,0,0,0,.128.031,1.332,1.332,0,0,0,.136.025c.005,0,.013,0,.018,0a88.82,88.82,0,0,0,16.15-.839c24.877-3.243,70.646-17.175,97.726-74.05,16.409-34.472,11.792-52.817,5.024-62.135-6.176-8.5-16.826-12.971-28.926-12.308a.9.9,0,0,0-.1.008c-1.064.061-2.138.144-3.225.287a39.827,39.827,0,0,0-21.678,9.589q-5.1,4.673-9.728,9.193c-.028.026-.052.051-.08.077q-8.46,8.265-15.444,16.016a1.187,1.187,0,0,0-.281.313,240.361,240.361,0,0,0-27.5,36.386,1.173,1.173,0,0,0-.6,1.01c-9.6,16.146-14.058,29.47-15.94,39.663a67.726,67.726,0,0,0-.556,23.417A1.211,1.211,0,0,0,986.431,1504.331Zm107.908-132.543a1,1,0,0,0-.109.339c-.138.4-1.228,3.286-3.469,8.207a33.893,33.893,0,0,0-11.583-5.4c1.468-2.291,2.482-3.877,2.969-4.64A36.008,36.008,0,0,1,1094.339,1371.788Zm-46.381,17.385c-2.537,3.936-5.79,9.038-9.483,14.94a36.146,36.146,0,0,0-4.077-.947Q1040.619,1396.372,1047.958,1389.173Zm2.59.374a47.884,47.884,0,0,1,13.421,4.754c-3.361,5.254-7.088,11.085-11.054,17.287a43.577,43.577,0,0,0-12.09-6.709C1044.673,1398.726,1048.021,1393.47,1050.549,1389.547Zm-33.232,34.072a25.011,25.011,0,0,1,8.074,1.854c-3.273,5.466-6.617,11.165-9.92,16.932a26.54,26.54,0,0,0-9.2-2.662C1009.408,1434.643,1013.066,1429.267,1017.317,1423.619Zm-12.432,18.419a23.933,23.933,0,0,1,9.4,2.446c-3.222,5.673-6.386,11.4-9.372,17.011a16.89,16.89,0,0,0-8.689-2.687A150.464,150.464,0,0,1,1004.885,1442.037Zm100.725-59.505c-.715,1.892-2.107,5.452-4.2,10.253a37.077,37.077,0,0,0-8.7-10.909,88.715,88.715,0,0,0,3.709-8.974A26.826,26.826,0,0,1,1105.61,1382.532Zm-13.932,1.558a35.884,35.884,0,0,1,8.483,11.5c-2.873,6.379-6.8,14.466-11.811,23.47a54.645,54.645,0,0,0-7.741-13.789C1085.391,1396.844,1089.066,1389.623,1091.678,1384.09Zm-38.217,31.041a44.622,44.622,0,0,1,3.8,3.776,50.838,50.838,0,0,1,6.52,9.268c-4.226,6.4-8.951,13.2-14.217,20.334a54.96,54.96,0,0,0-8.393-14.141C1045.39,1427.761,1049.53,1421.284,1053.461,1415.131Zm-26.378,41.343a54.017,54.017,0,0,1,5.788,13.388q-7.207,8.732-15.419,17.853a57.642,57.642,0,0,0-2.527-12.121C1018.835,1469.438,1022.925,1463,1027.083,1456.474Zm-13.207,16.359a26.465,26.465,0,0,0-6.086-9.117c-.3-.282-.605-.537-.909-.788,3.029-5.7,6.25-11.521,9.534-17.3a28.6,28.6,0,0,1,5.163,3.952,33.743,33.743,0,0,1,4.072,4.743C1021.635,1460.63,1017.674,1466.854,1013.876,1472.833Zm-17.2,41.929c1.891-.856,3.749-1.766,5.588-2.7-.053.331-.113.635-.177.927-.912.4-1.825.8-2.75,1.189a1.161,1.161,0,0,0-.482.382C998.1,1514.639,997.374,1514.708,996.677,1514.762Zm60.383-22.36q-.031-2.918-.15-5.719a206.412,206.412,0,0,0,16.065-14.449q-.023,3.2-.175,6.544A120.724,120.724,0,0,1,1057.06,1492.4Zm36.332-47.542c-.135-3.136-.418-6.146-.816-9.053,5.282-8.01,9.546-15.395,12.831-21.56q.517,3.838.731,8.051-1.118,3.622-2.617,7.522C1101.175,1433.671,1097.8,1438.874,1093.392,1444.86Zm-40.127,27.61c.266,1.894.49,3.839.684,5.824-4.75,4.434-9.812,8.76-15.2,12.887q-.128-2.09-.314-4.1C1043.732,1482.365,1048.672,1477.453,1053.265,1472.47Zm-15.124,11.686a92.5,92.5,0,0,0-2.615-13.867q7.169-8.74,13.29-16.9a96.871,96.871,0,0,1,3.979,16.02C1048.222,1474.474,1043.336,1479.425,1038.141,1484.155Zm-20.249,18.818a179.024,179.024,0,0,0,18.317-13.934c.1,1.266.182,2.556.249,3.863a183.941,183.941,0,0,1-18.665,12.188C1017.83,1504.381,1017.866,1503.669,1017.893,1502.974Zm-2.534,3.473q-5.189,2.839-10.678,5.375c.046-.34.088-.7.125-1.064q5.49-2.912,10.658-6.209C1015.433,1505.172,1015.4,1505.806,1015.358,1506.446Zm40-36.283a251.282,251.282,0,0,0,15.929-19.715q.713,4.044,1.123,8.406a229.72,229.72,0,0,1-16.267,17.36Q1055.818,1473.106,1055.363,1470.164ZM1073.2,1447.8c2.78-3.908,5.342-7.726,7.674-11.377,2.505-3.919,4.826-7.768,6.979-11.5a74.48,74.48,0,0,1,2.258,10.339,257.782,257.782,0,0,1-15.582,21.058Q1074.022,1451.9,1073.2,1447.8Zm16.254-25.686c5.013-8.895,9.01-17,12.009-23.581a61.572,61.572,0,0,1,3.318,11.817c-3.137,6.087-7.368,13.649-12.752,21.981A73.05,73.05,0,0,0,1089.451,1422.116Zm1.657,25.793a225.27,225.27,0,0,1-15.841,18.6q-.116-3.541-.41-6.9a258.523,258.523,0,0,0,15.705-20.795Q1091.028,1443.188,1091.108,1447.909Zm-18.152,21a204.309,204.309,0,0,1-16.193,14.858q-.132-2.321-.328-4.567a230.37,230.37,0,0,0,16.25-17.029Q1072.905,1465.448,1072.957,1468.906ZM1039,1503.172q.027-1.87.017-3.687a183.417,183.417,0,0,0,15.587-10.969c.058,1.817.1,3.662.1,5.542A118.694,118.694,0,0,1,1039,1503.172Zm-.024-6.453c-.019-.906-.048-1.8-.081-2.692,5.416-4.077,10.523-8.353,15.314-12.75q.164,2.134.275,4.335A183.388,183.388,0,0,1,1038.976,1496.719Zm-2.342,1.474a165.344,165.344,0,0,1-19.026,10.111c.008-.135.023-.276.031-.407a184.954,184.954,0,0,0,18.94-12.153C1036.6,1496.554,1036.618,1497.37,1036.633,1498.193Zm-21.476,11.182c-.42.181-.839.367-1.263.546.424-.225.848-.447,1.272-.675C1015.164,1509.29,1015.163,1509.334,1015.157,1509.375Zm-17.216,2.179q2.394-2.374,4.716-4.73c-.008.854-.034,1.672-.085,2.442C1001.05,1510.057,999.5,1510.815,997.942,1511.554Zm7.021-7.088q5.463-5.618,10.532-11.131.187,3.846.074,8.342-5.139,3.336-10.587,6.3C1005.02,1506.862,1005.013,1505.683,1004.963,1504.466Zm12.766-13.577q8.5-9.353,15.886-18.283a96.068,96.068,0,0,1,2.322,13.516,177.11,177.11,0,0,1-17.966,13.954C1018.016,1496.826,1017.933,1493.771,1017.729,1490.889Zm10.773-36.641c3.765-5.915,7.57-11.885,11.33-17.776a54.766,54.766,0,0,1,8.024,14.332q-6.093,8.15-13.128,16.8A52.9,52.9,0,0,0,1028.5,1454.248Zm36.522-23.715a71.169,71.169,0,0,1,5.621,16.592,252.947,252.947,0,0,1-15.787,19.965,92.6,92.6,0,0,0-4.288-16.044C1056.005,1443.736,1060.812,1436.86,1065.024,1430.533Zm1.5-2.263c2.635-4.01,5.027-7.788,7.176-11.292q3.023-4.923,5.626-9.462a53.441,53.441,0,0,1,7.5,14.251c-4.105,7.2-8.88,14.91-14.348,22.761A70.831,70.831,0,0,0,1066.521,1428.27Zm40.517-42.841a37.822,37.822,0,0,1,2.809,14.453c-.836,1.861-1.947,4.245-3.343,7.063a58.681,58.681,0,0,0-3.717-11.362C1104.689,1391.294,1106.1,1387.816,1107.038,1385.429Zm2.532,20.635a74.246,74.246,0,0,1-1.619,9.588c-.194-1.693-.417-3.354-.694-4.949C1108.11,1409.036,1108.882,1407.483,1109.57,1406.064Zm-11.716,36.642q-2.112,4.3-4.367,8.268c0-.773.01-1.542,0-2.3C1095.062,1446.6,1096.515,1444.6,1097.854,1442.706Zm-22.587,33.457q.1-3.225.065-6.322a226.587,226.587,0,0,0,15.776-18.077c-.017,1.127-.047,2.264-.1,3.418A135,135,0,0,1,1075.267,1476.162Zm-57.895,34.995c.005-.056.009-.109.014-.168a166.9,166.9,0,0,0,19.262-10.042c0,1.1-.014,2.211-.036,3.341A121.94,121.94,0,0,1,1017.373,1511.157Zm-25.465,3c-.162-.342-.345-.746-.544-1.219,2.759-4.432,6.248-9.986,10.243-16.317a44.785,44.785,0,0,1,.96,6.918Q997.413,1508.818,991.908,1514.162Zm11.426-20.272c3.071-4.86,6.4-10.118,9.9-15.636a62.2,62.2,0,0,1,2.04,11.849q-5.078,5.553-10.538,11.215A43.094,43.094,0,0,0,1003.334,1493.89Zm-.975-2.881a21.208,21.208,0,0,0-2.992-5.345,14.418,14.418,0,0,0-2.578-2.541c2.621-5.7,5.663-11.787,8.959-18.052.159.14.318.27.473.418a25.139,25.139,0,0,1,6.068,9.846C1008.794,1480.843,1005.454,1486.114,1002.358,1491.009Zm25.26-64.552a34.284,34.284,0,0,1,8.96,6.4c.563.556,1.11,1.14,1.65,1.737-3.714,5.818-7.476,11.721-11.2,17.577a37.224,37.224,0,0,0-3.872-4.35,31.591,31.591,0,0,0-5.556-4.25C1020.93,1437.737,1024.312,1431.98,1027.618,1426.457Zm1.236-2.059c3.746-6.232,7.365-12.124,10.668-17.428a41.734,41.734,0,0,1,12.1,6.632c-3.866,6.052-7.932,12.421-12.078,18.92-.453-.485-.909-.964-1.38-1.422A36.942,36.942,0,0,0,1028.854,1424.4Zm37.178-28.932a45.8,45.8,0,0,1,10.758,8.9c.329.373.633.765.951,1.148-3.515,6.152-7.661,13-12.493,20.427a52.732,52.732,0,0,0-6.264-8.663,47.566,47.566,0,0,0-4.232-4.174C1058.8,1406.773,1062.607,1400.818,1066.032,1395.466Zm1.295-2.023,10.48-16.374a31.581,31.581,0,0,1,11.945,5.453c-2.45,5.242-5.979,12.295-10.762,20.8-.156-.182-.3-.373-.46-.552A48.5,48.5,0,0,0,1067.327,1393.443Zm-77,116.694a45.125,45.125,0,0,1-1.534-6.3,132,132,0,0,1,6.979-18.485,12,12,0,0,1,1.741,1.776,20.532,20.532,0,0,1,3.252,6.4C996.744,1499.9,993.2,1505.536,990.325,1510.138Zm-2.211-12.1a68.04,68.04,0,0,1,.753-14.887,9.937,9.937,0,0,1,4.871.908C991.477,1489.09,989.563,1493.8,988.113,1498.036Zm1.178-17.374a99.894,99.894,0,0,1,5.919-19.465,14.049,14.049,0,0,1,8.594,2.393c-3.329,6.327-6.411,12.494-9.073,18.283a12.006,12.006,0,0,0-5.455-1.12C989.282,1480.72,989.283,1480.691,989.291,1480.662Zm43.179-75.372a31.086,31.086,0,0,1,4.684.945c-3.27,5.238-6.83,11.035-10.514,17.16a29.188,29.188,0,0,0-7.611-2.023C1022.995,1416.228,1027.458,1410.864,1032.47,1405.29Zm25.621-25.708a30.4,30.4,0,0,1,3.468-2.719,39.628,39.628,0,0,1,13.747-.272c-2.579,4.029-6.011,9.388-10.036,15.676a49.032,49.032,0,0,0-13.328-4.882c1.919-2.967,3.152-4.845,3.468-5.326C1056.3,1381.236,1057.187,1380.414,1058.091,1379.582Zm20.383-8.987c.243-.032.479-.046.718-.075-.622.972-1.456,2.275-2.478,3.866a41.565,41.565,0,0,0-9.559-.622A41.087,41.087,0,0,1,1078.474,1370.595Z" transform="translate(-985.597 -1367.89)" fill="#1e201e"/>
          </g>
          <g id="Groupe_6" data-name="Groupe 6" transform="translate(0 147.33)">
            <path id="Tracé_3" data-name="Tracé 3" d="M772.353,1557.848s-34.914,24.051-47.182,54.244l9.438,11.332s37.928-21.824,45.6-39.167S786.737,1542.74,772.353,1557.848Z" transform="translate(-716.156 -1553.09)" fill="#8c6043"/>
            <g id="Groupe_3" data-name="Groupe 3" transform="translate(0 59.002)">
              <path id="Tracé_4" data-name="Tracé 4" d="M695.571,1805.827s-7.444.249-8.926,7.11c-.978,4.529,6.338,12.855,10.258,12.731,8.819-.276,8.106-8.509,8.106-8.509Z" transform="translate(-686.557 -1805.827)" fill="#0c131a"/>
            </g>
            <path id="Tracé_5" data-name="Tracé 5" d="M1203.219,1557.964s34.98,24.021,47.246,54.214l-9.434,11.332s-37.929-21.824-45.605-39.167S1188.835,1542.857,1203.219,1557.964Z" transform="translate(-1073.014 -1553.176)" fill="#8c6043"/>
            <g id="Groupe_5" data-name="Groupe 5" transform="translate(168.002 59.002)">
              <g id="Groupe_4" data-name="Groupe 4">
                <path id="Tracé_6" data-name="Tracé 6" d="M1415.645,1805.827s7.444.249,8.927,7.11c.98,4.529-6.342,12.855-10.257,12.731-8.822-.276-8.1-8.509-8.1-8.509Z" transform="translate(-1406.197 -1805.827)" fill="#0c131a"/>
              </g>
            </g>
          </g>
          <path id="Tracé_7" data-name="Tracé 7" d="M927.251,1565.344c-.4-35.661-21.663-42.423-21.663-42.423l-29.463-9.347-29.458,9.347s-21.267,6.761-21.662,42.423c-.365,32.9-33.1,74.75,7.678,95.144,9.686,4.846,24.91,2.169,43.442,2.169s33.634,2.421,43.442-2.169C965.651,1638.929,927.615,1598.24,927.251,1565.344Z" transform="translate(-782.893 -1375.469)" fill="#9e6c4d"/>
          <path id="Tracé_8" data-name="Tracé 8" d="M927.251,1565.344c-.4-35.661-21.663-42.423-21.663-42.423l-26.553-8.427,22.347,7.537s18.1,6.123,18.443,38.4c.308,29.771,32.694,66.6-6.539,86.115-8.352,4.153-21.206,1.964-36.988,1.964s-28.739,2.42-36.982-1.964c-34.715-18.462-6.852-56.344-6.542-86.115.337-32.28,18.444-38.4,18.444-38.4l25-8.43-.089-.028-29.458,9.347s-21.267,6.761-21.662,42.423c-.365,32.9-33.1,74.75,7.678,95.144,9.686,4.846,24.91,2.169,43.442,2.169s33.634,2.421,43.442-2.169C965.651,1638.928,927.615,1598.24,927.251,1565.344Z" transform="translate(-782.893 -1375.469)" fill="#cbc1bd"/>
          <path id="Tracé_9" data-name="Tracé 9" d="M909.526,2114.8h29.09s3.061-.28,3.341-5.545-6.031-7.75-9.958-4.972c0,0-5.613-5.85-10.8.146,0,0-5.75-5.118-9.539,1.611,0,0-6.769.467-5.037,6.831A2.886,2.886,0,0,0,909.526,2114.8Z" transform="translate(-855.03 -1826.314)" fill="#1e201e"/>
          <path id="Tracé_10" data-name="Tracé 10" d="M1145.339,2114.8h-29.092s-3.058-.28-3.338-5.545,6.03-7.75,9.958-4.972c0,0,5.611-5.85,10.8.146,0,0,5.75-5.118,9.539,1.611,0,0,6.766.467,5.036,6.831A2.886,2.886,0,0,1,1145.339,2114.8Z" transform="translate(-1013.37 -1826.314)" fill="#1e201e"/>
          <g id="Groupe_49" data-name="Groupe 49" transform="translate(19.071)">
            <path id="Tracé_11" data-name="Tracé 11" d="M856.662,1045.789c-6.271-7.6-18.749-18.259-25.418-15.982-7.636,2.611-4.818,21.222-.576,28.708A55.375,55.375,0,0,1,856.662,1045.789Z" transform="translate(-812.872 -1004.399)" fill="#be8060"/>
            <path id="Tracé_12" data-name="Tracé 12" d="M872.961,1076.064c-4.367-4.665-11.155-9.915-14.994-8.6-4.386,1.5-3.5,11.068-1.338,16.695A55.048,55.048,0,0,1,872.961,1076.064Z" transform="translate(-834.624 -1033.346)" fill="#d7ae8a"/>
            <path id="Tracé_13" data-name="Tracé 13" d="M1192.521,1047.735c6.151-7.692,18.466-18.546,25.169-16.371,7.674,2.491,5.144,21.143,1.019,28.694A55.4,55.4,0,0,0,1192.521,1047.735Z" transform="translate(-1093.473 -1005.616)" fill="#be8060"/>
            <path id="Tracé_14" data-name="Tracé 14" d="M1215.955,1078.135c4.294-4.729,11-10.084,14.862-8.83,4.408,1.431,3.669,11.012,1.6,16.669A55.238,55.238,0,0,0,1215.955,1078.135Z" transform="translate(-1111.436 -1034.773)" fill="#d7ae8a"/>
            <g id="Groupe_48" data-name="Groupe 48" transform="translate(4.206 38.403)">
              <g id="Groupe_47" data-name="Groupe 47">
                <path id="Tracé_15" data-name="Tracé 15" d="M908.54,1121.414c-17.509-36.321-54.286-34.908-54.286-34.908s-36.775-1.413-54.284,34.908-21.329,80.9,7.026,95.561c24.116,12.464,70.4,12.464,94.517,0C929.872,1202.318,926.053,1157.738,908.54,1121.414Z" transform="translate(-786.262 -1086.499)" fill="#ac7654"/>
                <g id="Groupe_14" data-name="Groupe 14" transform="translate(29.039 43.881)">
                  <path id="Tracé_16" data-name="Tracé 16" d="M976.625,1281.433c-4.282-7.619-10.482-8.363-15.718-5.239-6.042,3.6-7.51,11.582-11.266,11.6-3.756-.016-5.225-8-11.268-11.6-5.232-3.125-11.432-2.38-15.716,5.239-5.331,9.484-15.282,42.038-10.936,58.181,3.6,13.354,12.813,23.017,37.794,23.017s34.45-9.663,38.046-23.017C991.908,1323.471,981.957,1290.917,976.625,1281.433Z" transform="translate(-910.651 -1274.463)" fill="#be8060"/>
                  <path id="Tracé_17" data-name="Tracé 17" d="M1020.288,1351.43c-3.771-14.542-15.261-14.333-18.534-14.333s-15.253.3-18.532,14.333c-4.074,17.45-13.25,53.919,18.532,53.919S1024.783,1368.761,1020.288,1351.43Z" transform="translate(-962.889 -1322.475)" fill="#d7ae8a"/>
                  <path id="Tracé_18" data-name="Tracé 18" d="M1056.282,1557.5l-6.465,1.9v7.221c0,.641.782,4.825,6.465,4.825s6.466-4.184,6.466-4.825V1559.4Z" transform="translate(-1017.328 -1491.424)" fill="#f8f8f9"/>
                  <path id="Tracé_19" data-name="Tracé 19" d="M1075.849,1555.506l.388,13.829.516-13.792S1076.918,1553.78,1075.849,1555.506Z" transform="translate(-1037.283 -1489.315)" fill="#c7c3c0"/>
                  <g id="Groupe_7" data-name="Groupe 7" transform="translate(22.375 27.751)">
                    <path id="Tracé_20" data-name="Tracé 20" d="M1023.8,1430.8v-37.463h-1.447V1430.8c-9.829,5.7-15.856-.707-15.856-.707,4.738,4.888,11.146,6.044,16.578,2.2,4.859,4.38,11.842,2.684,16.58-2.2C1039.654,1430.091,1033.6,1436.712,1023.8,1430.8Z" transform="translate(-1006.496 -1393.335)" fill="#050504"/>
                  </g>
                  <path id="Tracé_21" data-name="Tracé 21" d="M1051.424,1357.63c-6.5,0-8.827,2.761-7.652,5.74,2.339,5.957,5.822,6.8,7.652,6.8s5.316-.839,7.658-6.8C1060.252,1360.391,1057.926,1357.63,1051.424,1357.63Z" transform="translate(-1012.471 -1338.215)" fill="#1e201e"/>
                  <path id="Tracé_22" data-name="Tracé 22" d="M1060.756,1361.647c1.707.962,2.168,2.4,1.5,3.889-2.343,5.283-5.833,6.03-7.663,6.03a7.465,7.465,0,0,1-5.951-3.136c2.261,4.172,5.136,4.815,6.739,4.815,1.83,0,5.316-.839,7.658-6.8C1063.793,1364.529,1063.087,1362.7,1060.756,1361.647Z" transform="translate(-1016.43 -1341.294)" fill="#57504b"/>
                  <g id="Groupe_10" data-name="Groupe 10" transform="translate(15.768 4.854)">
                    <g id="Groupe_8" data-name="Groupe 8">
                      <path id="Tracé_23" data-name="Tracé 23" d="M987.735,1300.029a4.771,4.771,0,1,1-4.773-4.774A4.77,4.77,0,0,1,987.735,1300.029Z" transform="translate(-978.192 -1295.255)" fill="#050504"/>
                      <path id="Tracé_24" data-name="Tracé 24" d="M986.151,1304.058a.649.649,0,1,1-.65-.649A.647.647,0,0,1,986.151,1304.058Z" transform="translate(-983.299 -1301.505)" fill="#f8f8f9"/>
                      <path id="Tracé_25" data-name="Tracé 25" d="M994.868,1298.563a1.207,1.207,0,1,1-1.206-1.209A1.2,1.2,0,0,1,994.868,1298.563Z" transform="translate(-989.124 -1296.864)" fill="#f8f8f9"/>
                    </g>
                    <g id="Groupe_9" data-name="Groupe 9" transform="translate(36.221)">
                      <path id="Tracé_26" data-name="Tracé 26" d="M1142.885,1300.029a4.771,4.771,0,1,1-4.771-4.774A4.769,4.769,0,0,1,1142.885,1300.029Z" transform="translate(-1133.344 -1295.255)" fill="#050504"/>
                      <path id="Tracé_27" data-name="Tracé 27" d="M1141.3,1304.058a.65.65,0,1,1-.651-.649A.649.649,0,0,1,1141.3,1304.058Z" transform="translate(-1138.446 -1301.505)" fill="#f8f8f9"/>
                      <path id="Tracé_28" data-name="Tracé 28" d="M1150.025,1298.563a1.208,1.208,0,1,1-1.208-1.209A1.207,1.207,0,0,1,1150.025,1298.563Z" transform="translate(-1144.279 -1296.864)" fill="#f8f8f9"/>
                    </g>
                  </g>
                  <g id="Groupe_13" data-name="Groupe 13" transform="translate(32.367 20.671)">
                    <g id="Groupe_11" data-name="Groupe 11">
                      <path id="Tracé_29" data-name="Tracé 29" d="M1056.741,1363.106c-3.46-.346-9.6-.042-6.674,5.262,0,0,.977,1.772,1.885,1.184,1.432-.933-.766-2.569.57-3.948S1060.545,1363.451,1056.741,1363.106Z" transform="translate(-1049.298 -1363.007)" fill="#f8f8f9"/>
                    </g>
                    <g id="Groupe_12" data-name="Groupe 12" transform="translate(10.895 0.92)">
                      <path id="Tracé_30" data-name="Tracé 30" d="M1096.566,1367.065a1.131,1.131,0,0,0,.229,2.075C1098.409,1369.6,1098.207,1366.3,1096.566,1367.065Z" transform="translate(-1095.968 -1366.95)" fill="#f8f8f9"/>
                    </g>
                  </g>
                </g>
                <g id="Groupe_16" data-name="Groupe 16" transform="translate(61.84 106.457)">
                  <g id="Groupe_15" data-name="Groupe 15">
                    <path id="Tracé_31" data-name="Tracé 31" d="M1052.089,1542.726c-.042-.009-.084-.018-.125-.03s-.026,0,.073.034c-.067-.029.11.1.066.051l.136.234,0-.01-.054.412a.57.57,0,0,0-.2-.768c.153.1.1.084.062.039q.086.113.04.049a.464.464,0,0,0-.165-.165.53.53,0,0,0-.748.407.559.559,0,0,0,.254.624.57.57,0,0,0,.434.06h-.284c-.239-.089-.037-.008.031.011a.613.613,0,0,0,.182.021,1.657,1.657,0,0,0,.3-.048.481.481,0,0,0,0-.922Z" transform="translate(-1051.156 -1542.512)" fill="#050504"/>
                  </g>
                </g>
                <g id="Groupe_18" data-name="Groupe 18" transform="translate(62.865 102.445)">
                  <g id="Groupe_17" data-name="Groupe 17">
                    <path id="Tracé_32" data-name="Tracé 32" d="M1055.593,1525.537a.856.856,0,0,0-.006.521.339.339,0,0,0,.583,0,.856.856,0,0,0-.006-.521.3.3,0,0,0-.571,0Z" transform="translate(-1055.547 -1525.325)" fill="#050504"/>
                  </g>
                </g>
                <g id="Groupe_20" data-name="Groupe 20" transform="translate(58.347 106.505)">
                  <g id="Groupe_19" data-name="Groupe 19">
                    <path id="Tracé_33" data-name="Tracé 33" d="M1036.305,1542.972l-.057.193c-.279.934,1.489.339.612-.249l-.088-.059a.238.238,0,0,0-.245,0l-.088.059c-.877.588.89,1.183.612.249l-.057-.193a.36.36,0,0,0-.688,0Z" transform="translate(-1036.193 -1542.717)" fill="#050504"/>
                  </g>
                </g>
                <g id="Groupe_22" data-name="Groupe 22" transform="translate(57.032 103.7)">
                  <g id="Groupe_21" data-name="Groupe 21">
                    <path id="Tracé_34" data-name="Tracé 34" d="M1030.958,1531.522a.41.41,0,0,0,0-.82.41.41,0,0,0,0,.82Z" transform="translate(-1030.562 -1530.702)" fill="#050504"/>
                  </g>
                </g>
                <g id="Groupe_24" data-name="Groupe 24" transform="translate(59.863 103.83)">
                  <g id="Groupe_23" data-name="Groupe 23">
                    <path id="Tracé_35" data-name="Tracé 35" d="M1043.31,1531.813v-.255a.311.311,0,0,0-.622,0v.255a.311.311,0,0,0,.622,0Z" transform="translate(-1042.688 -1531.257)" fill="#050504"/>
                  </g>
                </g>
                <g id="Groupe_26" data-name="Groupe 26" transform="translate(59.673 100.509)">
                  <g id="Groupe_25" data-name="Groupe 25">
                    <path id="Tracé_36" data-name="Tracé 36" d="M1042.375,1517.033c-.219.007-.511.051-.5.342a.482.482,0,0,0,.546.4.165.165,0,0,0,.117-.117.365.365,0,0,0-.05-.285c-.013-.023-.025-.047-.036-.071.015.038.018.045.01.019q-.013-.083,0,.121l-.076.131a.22.22,0,0,1-.157.069h.039c.037,0,.073,0,.11,0a.3.3,0,0,0,0-.607Z" transform="translate(-1041.874 -1517.033)" fill="#050504"/>
                  </g>
                </g>
                <g id="Groupe_28" data-name="Groupe 28" transform="translate(74.034 106.752)">
                  <g id="Groupe_27" data-name="Groupe 27">
                    <path id="Tracé_37" data-name="Tracé 37" d="M1103.439,1544.051l-.027.2c-.131.957,1.37.326.61-.248l-.083-.063a.241.241,0,0,0-.253,0l-.083.063c-.76.574.741,1.205.61.248l-.027-.2a.39.39,0,0,0-.747,0Z" transform="translate(-1103.387 -1543.773)" fill="#050504"/>
                  </g>
                </g>
                <g id="Groupe_30" data-name="Groupe 30" transform="translate(71.507 105.632)">
                  <g id="Groupe_29" data-name="Groupe 29">
                    <path id="Tracé_38" data-name="Tracé 38" d="M1093.523,1539.651a1.137,1.137,0,0,0-.1-.462.446.446,0,0,0-.76,0,1.139,1.139,0,0,0-.1.462.478.478,0,0,0,.957,0Z" transform="translate(-1092.564 -1538.977)" fill="#050504"/>
                  </g>
                </g>
                <g id="Groupe_32" data-name="Groupe 32" transform="translate(72.393 101.754)">
                  <g id="Groupe_31" data-name="Groupe 31">
                    <path id="Tracé_39" data-name="Tracé 39" d="M1096.78,1523.231a.433.433,0,0,0,0-.865.433.433,0,0,0,0,.865Z" transform="translate(-1096.362 -1522.366)" fill="#050504"/>
                  </g>
                </g>
                <g id="Groupe_34" data-name="Groupe 34" transform="translate(76.521 103.149)">
                  <g id="Groupe_33" data-name="Groupe 33">
                    <path id="Tracé_40" data-name="Tracé 40" d="M1114.043,1528.749a2.282,2.282,0,0,0,.043.61.383.383,0,0,0,.734,0,2.277,2.277,0,0,0,.043-.61.41.41,0,1,0-.82,0Z" transform="translate(-1114.042 -1528.339)" fill="#050504"/>
                  </g>
                </g>
                <g id="Groupe_36" data-name="Groupe 36" transform="translate(73.793 104.143)">
                  <g id="Groupe_35" data-name="Groupe 35">
                    <path id="Tracé_41" data-name="Tracé 41" d="M1103.091,1533.314c.1-.183.281-.447.094-.635s-.451-.01-.634.095a.395.395,0,1,0,.54.54Z" transform="translate(-1102.358 -1532.597)" fill="#050504"/>
                  </g>
                </g>
                <g id="Groupe_38" data-name="Groupe 38" transform="translate(74.897 100.427)">
                  <g id="Groupe_37" data-name="Groupe 37">
                    <path id="Tracé_42" data-name="Tracé 42" d="M1107.369,1517.44a3.31,3.31,0,0,0,.326.1.208.208,0,0,0,.252-.252,3.259,3.259,0,0,0-.1-.323.387.387,0,1,0-.476.476Z" transform="translate(-1107.087 -1516.681)" fill="#050504"/>
                  </g>
                </g>
                <g id="Groupe_40" data-name="Groupe 40" transform="translate(77.294 107.201)">
                  <g id="Groupe_39" data-name="Groupe 39">
                    <path id="Tracé_43" data-name="Tracé 43" d="M1117.814,1546.654a.478.478,0,0,0,0-.956.478.478,0,0,0,0,.956Z" transform="translate(-1117.352 -1545.698)" fill="#050504"/>
                  </g>
                </g>
                <g id="Groupe_42" data-name="Groupe 42" transform="translate(55.422 107.049)">
                  <g id="Groupe_41" data-name="Groupe 41">
                    <path id="Tracé_44" data-name="Tracé 44" d="M1024.019,1545.761l.224-.015a.342.342,0,1,0,0-.683l-.224-.015a.357.357,0,0,0,0,.714Z" transform="translate(-1023.662 -1545.047)" fill="#050504"/>
                  </g>
                </g>
                <g id="Groupe_44" data-name="Groupe 44" transform="translate(56.354 100.829)">
                  <g id="Groupe_43" data-name="Groupe 43">
                    <path id="Tracé_45" data-name="Tracé 45" d="M1027.905,1518.919a.258.258,0,0,0,0-.516.258.258,0,0,0,0,.516Z" transform="translate(-1027.656 -1518.403)" fill="#050504"/>
                  </g>
                </g>
                <g id="Groupe_46" data-name="Groupe 46" transform="translate(79.95 102.723)">
                  <g id="Groupe_45" data-name="Groupe 45">
                    <path id="Tracé_46" data-name="Tracé 46" d="M1129.011,1527.091a.289.289,0,0,0,0-.577.289.289,0,0,0,0,.577Z" transform="translate(-1128.732 -1526.514)" fill="#050504"/>
                  </g>
                </g>
              </g>
            </g>
            <path id="Tracé_47" data-name="Tracé 47" d="M906.615,1107.48c-14.2-10.169-66.973-9.443-66.973-9.443s-52.766-.726-66.97,9.443c-20.9,14.965,37.4,34.823,66.97,34.823S927.516,1122.445,906.615,1107.48Z" transform="translate(-768.246 -1056.932)" fill="#444c37"/>
            <path id="Tracé_48" data-name="Tracé 48" d="M959.458,1112.125c-6.176-4.422-19.646-6.785-32.9-8.039.063.612.127,1.225.178,1.841a8.773,8.773,0,0,1-.19,3.645c-.589,1.6-2.35,2.291-3.636,2.872a49.533,49.533,0,0,1-8.912,2.906,77.8,77.8,0,0,1-18.313,1.99,149.6,149.6,0,0,1-18.6-1.363c-2.108-.271-4.24-.481-6.329-.912-1.276-.261-2.545-.547-3.82-.8-1.572-.312-3.149-.6-4.737-.771a14.993,14.993,0,0,0-4.163-.042,16.278,16.278,0,0,0-3.207,1.852s9.111,16.4,57.784,12.512c2.587-.2,14.4-2.81,11.953,3.332-4.157,10.415-42.923,18.789-87.389,2.682,15.743,7.509,39.584,13.121,55.3,13.121C922.06,1146.948,980.358,1127.09,959.458,1112.125Z" transform="translate(-821.089 -1061.577)" fill="#d7d3d5"/>
            <path id="Tracé_49" data-name="Tracé 49" d="M977.886,1123.307c10.669-2.15,17.854-6.681,19.376-10.867,1.612-4.446.314-5.019,7.477-5.261a151.66,151.66,0,0,0-20.22-3.091c.064.612.127,1.225.178,1.841a8.772,8.772,0,0,1-.19,3.645c-.589,1.6-2.35,2.291-3.636,2.872a49.544,49.544,0,0,1-8.912,2.906,77.8,77.8,0,0,1-18.313,1.99,149.6,149.6,0,0,1-18.6-1.363c-2.108-.271-4.24-.481-6.329-.912-1.276-.261-2.545-.547-3.82-.8-1.572-.312-3.149-.6-4.737-.771a14.993,14.993,0,0,0-4.163-.042,16.279,16.279,0,0,0-3.207,1.851S930.508,1132.854,977.886,1123.307Z" transform="translate(-879.048 -1061.578)" fill="#d7d3d5"/>
            <path id="Tracé_50" data-name="Tracé 50" d="M970.217,943.659l-25.3-16.184c-6.693-4.8-8.669-5.478-11.074-5.478s-4.377.682-11.068,5.478l-25.3,16.184a16.081,16.081,0,0,0-6.339,13.15v18.913s11.071,8.005,42.706,8.005,42.711-8.005,42.711-8.005V956.808A16.081,16.081,0,0,0,970.217,943.659Z" transform="translate(-862.451 -921.997)" fill="#5f6745"/>
            <path id="Tracé_51" data-name="Tracé 51" d="M929.545,949.987c10.256-6.567,13.89-21.959,13.79-22.405a59.163,59.163,0,0,0-6.487,4.19l-25.329,16.14a12.315,12.315,0,0,0-2.042,1.829C910.13,950.916,917.664,957.589,929.545,949.987Z" transform="translate(-876.506 -926.278)" fill="#e9e6e4"/>
            <path id="Tracé_52" data-name="Tracé 52" d="M933.847,1101.155c-31.635,0-42.706-8.005-42.706-8.005v11.7s11.071,8.006,42.706,8.006,42.711-8.006,42.711-8.006v-11.7S965.488,1101.155,933.847,1101.155Z" transform="translate(-862.451 -1053.193)" fill="#f4ac52"/>
            <path id="Tracé_53" data-name="Tracé 53" d="M952.761,931.586c-1.278.785-2.832,1.834-4.792,3.24L924,950.152C932.113,957.536,947.617,945.073,952.761,931.586Z" transform="translate(-887.642 -929.347)" fill="#e9e6e4"/>
            <path id="Tracé_54" data-name="Tracé 54" d="M1107.257,949.987c-10.257-6.567-13.89-21.959-13.789-22.405a59.317,59.317,0,0,1,6.487,4.19l25.322,16.14a12.37,12.37,0,0,1,2.049,1.829C1126.67,950.916,1119.138,957.589,1107.257,949.987Z" transform="translate(-1017.543 -926.278)" fill="#d7d3d5"/>
            <path id="Tracé_55" data-name="Tracé 55" d="M1100.791,931.586c1.279.785,2.833,1.834,4.793,3.24l23.96,15.327C1121.436,957.536,1105.932,945.073,1100.791,931.586Z" transform="translate(-1023.158 -929.347)" fill="#d7d3d5"/>
            <path id="Tracé_56" data-name="Tracé 56" d="M949.484,967.726c21.238-5.541,10.878-10.477,6.192-15.774a45.311,45.311,0,0,1-10.828-21.219,1.444,1.444,0,0,0-1.6-1.2,1.465,1.465,0,0,0-1.641,1.2c-4.636,22.4-20.924,32.927-37.113,25.672-.645,1.6-1.09,2.478-1.09,9.462C903.4,967.283,927.5,973.463,949.484,967.726Z" transform="translate(-871.85 -927.77)" fill="#fff" opacity="0.14"/>
            <path id="Tracé_57" data-name="Tracé 57" d="M974.137,1033.32s-.423,11.094-3.877,17.056c-5.186,8.958-14.316,13.066-41.545,13.066-19.814,0-31.56-3.142-37.573-5.487v3.1s11.071,8.005,42.706,8.005,42.711-8.005,42.711-8.005v-18.913A16.637,16.637,0,0,0,974.137,1033.32Z" transform="translate(-862.452 -1007.331)" fill="#d7d3d5"/>
          </g>
        </g>
      </g>
    </g>
    <g id="Ellipse_1" data-name="Ellipse 1" transform="translate(496 359)" fill="#d5d5d5" stroke="#000" stroke-width="2">
      <circle cx="10" cy="10" r="10" stroke="none"/>
      <circle cx="10" cy="10" r="9" fill="none"/>
    </g>
    <g id="Ellipse_2" data-name="Ellipse 2" transform="translate(516 333)" fill="#f4f4f4" stroke="#000" stroke-width="2">
      <circle cx="15" cy="15" r="15" stroke="none"/>
      <circle cx="15" cy="15" r="14" fill="none"/>
    </g>
    <g id="Tracé_60" data-name="Tracé 60" transform="translate(518 42.008)" fill="#fff">
      <path d="M 58.98746109008789 289.0440063476562 C 58.80789566040039 289.0440063476562 58.62814712524414 289.03564453125 58.45327377319336 289.0191345214844 C 57.58333587646484 288.9368896484375 56.99489593505859 288.5589294433594 56.65433502197266 287.8636169433594 C 56.27120971679688 287.0815124511719 56.18683624267578 285.8950805664062 56.40352249145508 284.3372497558594 C 56.60864639282227 282.8625183105469 57.08833312988281 281.0440673828125 57.82914733886719 278.9323120117188 C 59.08752059936523 275.3455200195312 61.10752105712891 270.8739318847656 63.83320999145508 265.6419372558594 C 68.48289489746094 256.7165832519531 73.63552093505859 248.5803833007812 73.68701934814453 248.4992523193359 L 73.98677062988281 248.0270080566406 L 73.48402404785156 247.7818756103516 C 73.17115020751953 247.6293182373047 42.11477279663086 232.4798736572266 35.20708465576172 228.4616241455078 C 31.89570999145508 226.5353851318359 28.64052200317383 223.7023162841797 25.53202247619629 220.0411376953125 C 22.31939697265625 216.2572631835938 19.41964721679688 211.7676239013672 16.91333389282227 206.6968231201172 C 11.34352207183838 195.4278259277344 8.178335189819336 182.2380676269531 7.759834766387939 168.5534362792969 C 7.472397327423096 159.1516265869141 8.485334396362305 149.6084442138672 10.7706470489502 140.1889495849609 C 13.28595924377441 129.8212585449219 17.3603343963623 119.5577545166016 22.88058471679688 109.6836318969727 C 35.5672721862793 86.99069213867188 55.81877136230469 66.27182006835938 83.07270812988281 48.10250473022461 C 95.27277374267578 39.96913146972656 107.7617721557617 32.7783203125 120.1927719116211 26.72981834411621 C 132.3128356933594 20.8326301574707 144.6930847167969 15.86775588989258 156.9897766113281 11.97313117980957 C 168.9774627685547 8.17638111114502 181.1947021484375 5.298756122589111 193.3022155761719 3.420318603515625 C 205.10595703125 1.588943600654602 217.1063995361328 0.6603810787200928 228.97021484375 0.6603810787200928 C 242.4595794677734 0.6603810787200928 256.134521484375 1.859193563461304 269.6152038574219 4.223505973815918 C 282.7107238769531 6.520318508148193 295.9334716796875 9.971131324768066 308.9161376953125 14.48019313812256 C 321.5379638671875 18.86394309997559 334.2238464355469 24.34863090515137 346.6212768554688 30.78194427490234 C 358.6887817382812 37.04400634765625 370.752197265625 44.34425735473633 382.4763488769531 52.47982025146484 C 391.3341979980469 58.62638092041016 398.8647766113281 65.68400573730469 404.8589477539062 73.45663452148438 C 410.5060119628906 80.77925872802734 414.8800354003906 88.85094451904297 417.8594665527344 97.44744110107422 C 420.6716613769531 105.5613174438477 422.2761535644531 114.2354431152344 422.6284484863281 123.2288818359375 C 422.96240234375 131.7550048828125 422.1754455566406 140.6168823242188 420.2895812988281 149.5682525634766 C 417.8637084960938 161.0821990966797 413.6835327148438 172.5799407958984 407.8651428222656 183.7421875 C 405.0679016113281 189.1085052490234 401.895263671875 194.3721923828125 398.4353942871094 199.3871307373047 C 395.0098266601562 204.3523864746094 391.2716369628906 209.1189422607422 387.32470703125 213.5543823242188 C 383.3807678222656 217.9864501953125 379.1947021484375 222.1258239746094 374.8827209472656 225.8575134277344 C 370.5343322753906 229.6206970214844 366.0185852050781 233.0031890869141 361.4609680175781 235.9110107421875 C 352.0012817382812 241.9463195800781 342.4560241699219 245.9263153076172 333.0903930664062 247.7404479980469 C 330.2650146484375 248.2876892089844 326.8415222167969 249.0153198242188 322.8774719238281 249.8577575683594 C 312.1302185058594 252.1418151855469 297.4114074707031 255.2699432373047 280.3644104003906 257.8199462890625 C 271.0592651367188 259.2118225097656 261.9296569824219 260.2949523925781 253.2290802001953 261.0392456054688 C 243.0908355712891 261.9066162109375 233.1695861816406 262.346435546875 223.7410888671875 262.3466186523438 C 223.1710205078125 262.3466186523438 222.6163330078125 262.3451232910156 222.0452728271484 262.3419494628906 C 206.2689666748047 262.2548217773438 189.6350250244141 259.147705078125 173.5487670898438 256.142822265625 C 159.0147094726562 253.4279479980469 145.2866516113281 250.8635711669922 133.6997680664062 250.8635711669922 C 133.5605163574219 250.8635711669922 133.4225921630859 250.8639373779297 133.2839660644531 250.8647003173828 C 129.3323974609375 250.8859405517578 125.3500213623047 251.5351257324219 121.1092758178711 252.8492584228516 C 117.4270858764648 253.9903869628906 114.0460815429688 255.4784393310547 111.0631484985352 256.7913818359375 C 106.7475204467773 258.6908874511719 103.0204010009766 260.3313903808594 99.83852386474609 260.3318176269531 C 99.26058197021484 260.3319396972656 98.7255859375 260.2795715332031 98.20295715332031 260.1716918945312 L 98.14008331298828 260.1587524414062 L 98.07595825195312 260.1620788574219 C 91.00720977783203 260.5289306640625 83.68158721923828 268.2791442871094 76.59714508056641 275.7741394042969 C 73.30714416503906 279.2547607421875 70.19964599609375 282.5423889160156 67.20177459716797 285.0208740234375 C 63.92739868164062 287.7280578613281 61.24052047729492 289.0440063476562 58.98746109008789 289.0440063476562 Z" stroke="none"/>
      <path d="M 228.97021484375 1.160369873046875 C 217.1319580078125 1.160369873046875 205.1572723388672 2.086944580078125 193.3788299560547 3.91436767578125 C 181.2964477539062 5.78900146484375 169.1042175292969 8.6607666015625 157.1407165527344 12.44981384277344 C 144.8672180175781 16.33706665039062 132.5097045898438 21.29281616210938 120.4115295410156 27.179443359375 C 108.0007019042969 33.21806335449219 95.53146362304688 40.39762878417969 83.35003662109375 48.51856994628906 C 56.1627197265625 66.64344787597656 35.96466064453125 87.304443359375 23.3170166015625 109.9276275634766 C 17.81890869140625 119.7621307373047 13.76119995117188 129.9832000732422 11.25653076171875 140.3068237304688 C 8.981842041015625 149.6827545166016 7.9735107421875 159.1811828613281 8.2596435546875 168.5381927490234 C 8.6759033203125 182.1517028808594 11.82333374023438 195.2701416015625 17.361572265625 206.4752502441406 C 19.84976196289062 211.5094451904297 22.72695922851562 215.9648132324219 25.91314697265625 219.7174987792969 C 28.98483276367188 223.3352508544922 32.19631958007812 226.1318206787109 35.45846557617188 228.0294494628906 C 42.3504638671875 232.03857421875 73.39031982421875 247.1800079345703 73.70309448242188 247.3324432373047 L 74.70858764648438 247.82275390625 L 74.10916137695312 248.7671966552734 C 74.05764770507812 248.8482513427734 68.91064453125 256.9761352539062 64.27102661132812 265.8835144042969 C 61.55795288085938 271.0922546386719 59.54876708984375 275.5398254394531 58.29928588867188 279.1025695800781 C 56.444091796875 284.3924560546875 56.62496948242188 286.6670532226562 57.10333251953125 287.6437072753906 C 57.36819458007812 288.1843872070312 57.79901123046875 288.4550170898438 58.50015258789062 288.5213317871094 C 58.65975952148438 288.536376953125 58.82376098632812 288.5440063476562 58.98745727539062 288.5440063476562 C 61.119384765625 288.5440063476562 63.70208740234375 287.2655639648438 66.88314819335938 284.6355590820312 C 69.85733032226562 282.1765747070312 72.95458984375 278.8998107910156 76.23370361328125 275.4306945800781 C 83.38577270507812 267.8641357421875 90.78134155273438 260.0400085449219 98.05001831054688 259.6627502441406 L 98.17816162109375 259.6560668945312 L 98.30389404296875 259.6820068359375 C 98.79257202148438 259.7828063964844 99.29458618164062 259.8318176269531 99.83859252929688 259.8318176269531 C 102.91552734375 259.8318176269531 106.5985107421875 258.2107543945312 110.863037109375 256.3336181640625 C 116.85595703125 253.6958160400391 124.3143920898438 250.4128875732422 133.2812194824219 250.3646850585938 C 133.4207153320312 250.3639373779297 133.5595703125 250.3635711669922 133.6997680664062 250.3635711669922 C 145.3329467773438 250.3635711669922 159.0831604003906 252.9320678710938 173.6406555175781 255.6513214111328 C 189.7051544189453 258.6521301269531 206.316650390625 261.7550659179688 222.0480194091797 261.8419494628906 C 222.6200256347656 261.8451232910156 223.173828125 261.8466186523438 223.7410888671875 261.8466186523438 C 233.1551513671875 261.8466186523438 243.0617065429688 261.4075012207031 253.1855773925781 260.54150390625 C 261.8754577636719 259.7981262207031 270.9942626953125 258.71630859375 280.288818359375 257.3260192871094 C 297.3203125 254.7783203125 312.0305786132812 251.6519470214844 322.7715148925781 249.3691253662109 C 326.73876953125 248.5260009765625 330.1650390625 247.7978210449219 332.9952697753906 247.2495727539062 C 342.298828125 245.4474487304688 351.7855834960938 241.4908142089844 361.1920166015625 235.4894409179688 C 365.7292785644531 232.5946960449219 370.2254028320312 229.2268218994141 374.5555114746094 225.4793853759766 C 378.8511352539062 221.7618865966797 383.0216369628906 217.6378784179688 386.9511413574219 213.2220153808594 C 390.884521484375 208.8018798828125 394.6098937988281 204.0515747070312 398.0238952636719 199.1031951904297 C 401.4720764160156 194.1051330566406 404.6339721679688 188.8591918945312 407.4217834472656 183.5110778808594 C 413.2191467285156 172.3892517089844 417.3838500976562 160.9345092773438 419.8002624511719 149.4651947021484 C 421.6777648925781 140.5540771484375 422.4611511230469 131.7335052490234 422.1288452148438 123.2484436035156 C 421.7784729003906 114.30419921875 420.1831359863281 105.6785736083984 417.3870849609375 97.61112976074219 C 414.4253234863281 89.06575012207031 410.0770263671875 81.04176330566406 404.4630126953125 73.76200866699219 C 398.5002136230469 66.03007507324219 391.0069580078125 59.00787353515625 382.1912841796875 52.89056396484375 C 370.4845886230469 44.76713562011719 358.4396362304688 37.47801208496094 346.3909606933594 31.22575378417969 C 334.0147705078125 24.80351257324219 321.3512573242188 19.32838439941406 308.7520751953125 14.95249938964844 C 295.7946472167969 10.45225524902344 282.5980224609375 7.0081787109375 269.5288391113281 4.71600341796875 C 256.0765991210938 2.356689453125 242.4307098388672 1.160369873046875 228.97021484375 1.160369873046875 M 228.9701995849609 0.160369873046875 C 284.0675659179688 0.160369873046875 336.2357177734375 19.78419494628906 382.7614135742188 52.06900024414062 C 469.1089477539062 111.98681640625 400.314453125 235.2283782958984 333.1854553222656 248.2313232421875 C 314.9932250976562 251.7551574707031 271.588623046875 262.8466186523438 223.7411041259766 262.8466186523438 C 223.1737518310547 262.8466186523438 222.6110992431641 262.8450927734375 222.0425262451172 262.8419494628906 C 191.8361511230469 262.6751403808594 157.9330749511719 251.3635864257812 133.6997680664062 251.3635864257812 C 133.5614013671875 251.3635864257812 133.4243469238281 251.3639526367188 133.2866516113281 251.3647003173828 C 117.0354919433594 251.4520721435547 106.0941162109375 262.310546875 98.10183715820312 260.661376953125 C 84.59713745117188 261.3623046875 69.40771484375 290.5567626953125 58.40621948242188 289.5168762207031 C 47.70114135742188 288.5050048828125 73.26483154296875 248.2313232421875 73.26483154296875 248.2313232421875 C 73.26483154296875 248.2313232421875 41.95913696289062 232.9678192138672 34.95565795898438 228.8938140869141 C 5.529205322265625 211.7760620117188 -24.9884033203125 119.5423736572266 82.79534912109375 47.68650817871094 C 132.5032348632812 14.54792785644531 181.8116760253906 0.160369873046875 228.9701995849609 0.160369873046875 Z" stroke="none" fill="#707070"/>
    </g>
    <path id="Tracé_59" data-name="Tracé 59" d="M350.915,472.071a1.961,1.961,0,0,0-1.7.1c-.6.45-.168.118-.205.12l.371-.4.742-.783,1.494-1.551,3.033-3.06q3.054-3.04,6.256-5.968A158.421,158.421,0,0,1,374.452,449.4a79.072,79.072,0,0,1,7.6-4.922c1.339-.738,2.807-1.466,4.172-2.1,1.368-.608,2.736-1.221,4.125-1.8a141.163,141.163,0,0,1,17.134-6.1,85.542,85.542,0,0,1,18.446-3.323,46.562,46.562,0,0,1,9.826.478,21.81,21.81,0,0,1,2.481.528,17.224,17.224,0,0,1,2.46.7l4.3,1.641a95.2,95.2,0,0,0,16.568,4.069c5.748,1.013,11.625,1.646,17.486,2.287,23.547,2.255,47.46,1.932,71.168.24,11.867-.846,23.734-2.139,35.261-3.959A216.215,216.215,0,0,0,619.3,428.4l8.129-3.033,7.9-3.473c2.652-1.129,5.122-2.557,7.692-3.821,2.591-1.239,5-2.74,7.453-4.174a140.055,140.055,0,0,0,26.672-20.311,97.942,97.942,0,0,0,19.228-25.885,96.662,96.662,0,0,0,8.744-30.279,140.587,140.587,0,0,0,.487-31.708,122.338,122.338,0,0,0-6.934-30.957,85.469,85.469,0,0,0-6.9-14.285l-2.115-3.358c-.742-1.093-1.623-2.084-2.423-3.135a59.95,59.95,0,0,0-5.38-6.018c-7.674-7.792-17.034-14.28-26.893-19.973-19.877-11.31-42.156-19.214-64.964-25.01-22.889-5.648-46.394-9.8-70-10.417a233.062,233.062,0,0,0-69.884,8.442c-2.81.831-5.659,1.556-8.437,2.472l-8.337,2.755c-5.48,2.029-10.975,4.031-16.323,6.358l-4.038,1.686-3.97,1.824c-2.631,1.241-5.324,2.375-7.905,3.706l-7.8,3.9c-2.544,1.351-4.993,2.785-7.5,4.169-19.627,11.69-36.285,27.364-50.13,44.662a186.813,186.813,0,0,0-18.241,27.447,133.137,133.137,0,0,0-6.845,14.686,117.469,117.469,0,0,0-4.448,15.379,115.008,115.008,0,0,0-2.539,31.713c.295,2.63.41,5.287.944,7.882.234,1.3.416,2.615.695,3.908l.971,3.848a30.045,30.045,0,0,0,1.163,3.8c.447,1.246.837,2.515,1.329,3.746a62.175,62.175,0,0,0,3.528,7.154,53.651,53.651,0,0,0,9.954,12.671,122.056,122.056,0,0,0,13.53,10.139,124.914,124.914,0,0,0,14.908,8.515,64.78,64.78,0,0,0,7.929,3.2,35.88,35.88,0,0,0,4.059,1.106c.679.165,1.35.253,2.013.353.321.03.668.09.968.1.284.025.689.03.763.03h0l3.415,1.131-1.307,1.937c-2.189,3.243-4.254,6.673-6.174,10.109a116.819,116.819,0,0,0-5.238,10.529,63.959,63.959,0,0,0-3.775,10.877,34.453,34.453,0,0,0-.942,5.5l-.095,2.625c.032.168-.071.193-.368.315A2.354,2.354,0,0,0,350.915,472.071Zm-1.176,3.883a15.3,15.3,0,0,1-1.265-2.1,7.894,7.894,0,0,1-.681-2.6c-.026-1.241.061-2.147.092-3.235a38.442,38.442,0,0,1,1.031-6.075,67.873,67.873,0,0,1,3.98-11.488,120.518,120.518,0,0,1,5.4-10.87c1.986-3.546,4.056-7,6.377-10.432l2.107,3.068h-.008a10.892,10.892,0,0,1-1.486-.012c-.45-.015-.844-.078-1.271-.118-.818-.113-1.634-.223-2.41-.4a40.2,40.2,0,0,1-4.567-1.2,69.282,69.282,0,0,1-8.536-3.353,130.285,130.285,0,0,1-15.592-8.728,126.045,126.045,0,0,1-14.253-10.514,58.384,58.384,0,0,1-10.941-13.66,66.649,66.649,0,0,1-3.864-7.659c-.539-1.311-.971-2.655-1.46-3.984a33.178,33.178,0,0,1-1.276-4.026l-1.068-4.071c-.308-1.364-.513-2.742-.774-4.114-.584-2.74-.742-5.512-1.071-8.272a119.4,119.4,0,0,1,2.315-33.017,122.089,122.089,0,0,1,4.5-16.107,137.749,137.749,0,0,1,6.969-15.336,192.027,192.027,0,0,1,18.509-28.41,203.891,203.891,0,0,1,23.4-25.307,177.418,177.418,0,0,1,28.185-21.139c2.6-1.461,5.19-2.988,7.813-4.391l7.932-4.016c2.625-1.369,5.374-2.542,8.058-3.821l4.046-1.882,4.125-1.747c5.461-2.4,11.091-4.489,16.71-6.6l8.56-2.87c2.854-.953,5.787-1.719,8.679-2.585a241.1,241.1,0,0,1,72.2-9.043,286.1,286.1,0,0,1,36.343,3.255c11.954,1.869,23.81,4.209,35.532,7.1a304.369,304.369,0,0,1,34.53,10.629,226.878,226.878,0,0,1,32.62,15.088c10.341,5.953,20.253,12.776,28.585,21.194a66.9,66.9,0,0,1,5.935,6.613c.908,1.178,1.9,2.317,2.728,3.531l2.352,3.7a92.262,92.262,0,0,1,7.511,15.471,129.072,129.072,0,0,1,7.39,32.651,147.241,147.241,0,0,1-.453,33.237,103.394,103.394,0,0,1-9.341,32.439,105.3,105.3,0,0,1-20.646,27.935,148.18,148.18,0,0,1-28.2,21.557c-2.583,1.516-5.122,3.1-7.839,4.406-2.7,1.334-5.3,2.835-8.079,4.026l-8.287,3.656-8.51,3.193a225.459,225.459,0,0,1-35.314,9.186c-12.114,1.964-24.126,3.173-36.2,3.969-24.152,1.584-48.475,1.789-72.7-.666-6.053-.668-12.1-1.406-18.115-2.587a101.833,101.833,0,0,1-18.015-4.8l-2.236-.923-1.726-.678a11.073,11.073,0,0,0-1.815-.55,14.716,14.716,0,0,0-1.886-.44,38.879,38.879,0,0,0-8.1-.518,78.369,78.369,0,0,0-16.841,2.762,155.165,155.165,0,0,0-16.5,5.475c-1.357.518-2.7,1.073-4.043,1.626-1.318.573-2.5,1.121-3.749,1.757a74.117,74.117,0,0,0-7.177,4.361,154.589,154.589,0,0,0-13.432,10.389c-2.136,1.859-4.288,3.711-6.369,5.63l-3.11,2.888-1.531,1.461-.758.736-.374.368a3.647,3.647,0,0,1-.579.5A3.1,3.1,0,0,1,349.74,475.955Z" transform="translate(226.753 -142.979)" fill="#645858"/>
    <text id="Bonjour_cher_joueur_ravi_de_vous_voir_pour_commencer_cliquer_sur_le_boutton_" data-name="Bonjour cher joueur, 
ravi de vous voir,  pour commencer, cliquer sur le boutton  " transform="translate(572 134)" font-size="22" font-family="Ayuthaya"><tspan x="0" y="23">Bonjour cher joueur, </tspan><tspan x="0" y="53" xml:space="preserve">ravi de vous voir,  pour </tspan><tspan x="0" y="83">commencer, cliquer sur le </tspan><tspan x="0" y="113" xml:space="preserve">boutton  </tspan></text>
    <text id="_" data-name="👋" transform="translate(692 119)" fill="#707070" font-size="49" font-family="AppleColorEmoji, Apple Color Emoji"><tspan x="0" y="0">👋</tspan></text>
  </g>
</svg>
