<svg xmlns="http://www.w3.org/2000/svg" width="1236.211" height="452.327" viewBox="0 0 1236.211 452.327">
  <g id="Groupe_121" data-name="Groupe 121" transform="translate(-2667 -2947.66)">
    <g id="Groupe_112" data-name="Groupe 112" transform="translate(2548.043 1313)">
      <path id="Tracé_264" data-name="Tracé 264" d="M1188.621,1891.27c-14.81,24.68-172,2.67-245.33,0s-210.11-10.67-259.57,0-163.1,11.13-204.73,7.13c-17.33-1.66-40.27-1.94-62.98-1.16-29.61,1.03-58.82,3.86-74.67,7.8-1.21.3-2.34.61-3.39.92C312.621,1913.51,236.7,1919,236.7,1919l-4.91-128.34s71.35,11.6,116.86,13.38c7.5.3,14.31.33,19.97-.01,25.49-1.52,61.28-3.93,95.99-3.67,19.75.14,39.14,1.15,56.11,3.67,37.39,5.56,101.02,2.23,125.02.67,1.64-.11,116.21-10.3,153.55-7.63,17.85,1.27,41.79,2.24,67.9,3.93,28.49,1.84,59.57,4.53,88.1,9.4,15.32,2.62,32.5,3.2,49.91,2.67,44.72-1.34,91-10,111.38-10.43,28.74-.6,62.94-10.91,81.61,23.76S1192.621,1884.6,1188.621,1891.27Z" fill="#9a5c33"/>
      <path id="Tracé_265" data-name="Tracé 265" d="M271.741,1818.71c14.21,10.36,44.88,15.52,34.21,20.27s-35.09,7.42-34.21,26.09-24.3,28.73-31.4,34.29,22.95,16.82,46.95,6.6c13.41-5.71,36.38-3.76,54.05-.92-1.21.3-2.34.61-3.39.92C312.621,1913.51,236.7,1919,236.7,1919l-4.91-128.34s71.35,11.6,116.86,13.38c-11.39,6.54-23.17,11.78-30.7,10.99C299.291,1813.069,257.521,1808.36,271.741,1818.71Z" fill="#8d5233"/>
      <path id="Tracé_266" data-name="Tracé 266" d="M1188.621,1891.27c-14.81,24.68-172,2.67-245.33,0s-210.11-10.67-259.57,0-163.1,11.13-204.73,7.13c-17.33-1.66-40.27-1.94-62.98-1.16,34.36-8.29,76.74-17.29,93.82-15.94,30.79,2.43,82,16.17,111.73,9.97s87.89-22.2,111.47-22.2,109.89,11.14,128.74,12.23,71.58-8.23,100.55-8.23,83.63,16.4,116.97,18.2,101.28-2.13,94.66-51.6c-2.66-19.94-49.33-22.67-66.66-24.64-15.24-1.72-51.08,15.01-102.09-1.96,44.72-1.34,91-10,111.38-10.43,28.74-.6,62.94-10.91,81.61,23.76S1192.621,1884.6,1188.621,1891.27Z" fill="#8d5233"/>
      <g id="Groupe_83" data-name="Groupe 83">
        <path id="Tracé_267" data-name="Tracé 267" d="M264.08,1867.191c-.582,3.138-3.874,10.571-10.459,25.437-8.878,20.044-11.988,24.265-16.921,26.369-6.705,2.86-13.4.371-15.853-.743-9.942-4.511-14.357-15.472-20.591-30.947-3.635-9.026-6.274-15.577-7.086-25.255A70.207,70.207,0,0,1,197.454,1832c2.939-7.7,6.374-12.179,13.243-21.138,10.306-13.443,15.459-20.164,21.092-20.194,11.434-.061,20.366,20.46,24.749,30.532C260.181,1829.568,267.81,1847.1,264.08,1867.191Z" fill="#8d5233"/>
        <path id="Tracé_268" data-name="Tracé 268" d="M254.771,1864.186c-.458,2.467-3.046,8.31-8.222,20-6.979,15.757-9.424,19.075-13.3,20.729-5.271,2.249-10.532.291-12.463-.584-7.816-3.546-11.286-12.162-16.187-24.328-2.858-7.095-4.932-12.245-5.57-19.854a55.181,55.181,0,0,1,3.368-23.627c2.311-6.052,5.011-9.574,10.41-16.617,8.1-10.568,12.153-15.852,16.581-15.875,8.989-.048,16.01,16.084,19.456,24C251.706,1834.61,257.7,1848.39,254.771,1864.186Z" fill="#da9157"/>
        <path id="Tracé_269" data-name="Tracé 269" d="M243.736,1855.163c-.446,8.727-1.215,23.813-10.766,31.685-1.52,1.253-7.376,6.08-13.5,3.832-3.715-1.364-6.068-4.8-6.86-5.952-1.771-2.583-2.2-4.559-4.005-11.05-3.482-12.535-3.617-11.448-3.844-13.7-.642-6.353.813-11.232,2.324-16.305a45.229,45.229,0,0,1,6.823-14.663c3.587-4.877,7.875-10.71,13.568-10.274,7.386.565,12.08,11.3,13.382,14.276C244.376,1841.051,244.084,1848.34,243.736,1855.163Z" fill="#ffd888"/>
      </g>
      <path id="Tracé_275" data-name="Tracé 275" d="M464.611,1818.713c-26.682-5.07-44.434-9.265-69.323-3.678s-56,24.254-68.444,23.365-36.444,22.222,0,21.333,97.778,13.333,67.556,16-37.333,24,60.444,1.778,104.678,3.555,148.339-6.222,144.487-14.222,207.408-5.333,174.92-13.333,208.7-4.444,61.333,14.222,83.555,12.444,71.023-11.584,18.623-19.125-44.13-19.986-68.709-23.541-65.629,0-90.438-4.445-74.956-15.659-100.549-14.5-92.26-2.623-111.815-6.063-41.778,5.186-64.889,12.428-83.53,17.02-121.321,12.576S484.67,1822.524,464.611,1818.713Z" fill="#a26339"/>
      <path id="Tracé_277" data-name="Tracé 277" d="M420.177,1830.1c-17.275.247-49.185,6.519-31.407,11.852s21.333,8.3,39.7,17.185,24.889-2.823,49.778-7.337,81.185,10.893,104.3,7.337,64-20.741,101.926-18.37,115.555-2.268,76.444-10.912-56.889-7.387-65.185-6.238-30.769,7.075-50.051,10.631-52.29,14.222-68.083,7.7-31.792,6.611-64.385.639S433.322,1829.915,420.177,1830.1Z" fill="#ab6b39"/>
      <path id="Tracé_278" data-name="Tracé 278" d="M830.4,1832.177c-13.479,2.4-23.111,4.389-34.667,10.417s-16.444,20.694,4,15.806,21.778-14.527,47.111-6.6,92.445-15.237,120-9.209,64.445,9.528,49.778,0-64.889-13.528-83.111-15.305S862.843,1826.4,830.4,1832.177Z" fill="#ab6b39"/>
      <path id="Tracé_279" data-name="Tracé 279" d="M363.288,1851.8c-6.249.766-23.845,14.152-40.367,18.6s-29.855,18.239-12.077,17.12,31.111-10.9,45.333-11.786,56.889,3.556,64.889-.889S391.732,1848.318,363.288,1851.8Z" fill="#b6703e"/>
      <path id="Tracé_280" data-name="Tracé 280" d="M777.535,1822.8c-14.449-1.91-42.24-2.933-33.577,3.665s66.441,14.987,96.663,16.126,64.991,7.248,55.111-4.194-64.889-17.288-80.889-17.533S790.037,1824.456,777.535,1822.8Z" fill="#b6703e"/>
      <path id="Tracé_281" data-name="Tracé 281" d="M1115.88,1826.468c-10.88-2.941-24.3.636-14.815,6.58s39.619,20.812,43.809,12.193S1126.547,1829.352,1115.88,1826.468Z" fill="#b6703e"/>
      <path id="Tracé_282" data-name="Tracé 282" d="M222.056,1881.32c-2.882.3-4.954-2.156-5.563-2.953-1.543-2.017-1.2-3.2-3.245-5.886-1.267-1.665-1.8-1.736-2.6-3.423a17.057,17.057,0,0,1-1.448-5.494,31.846,31.846,0,0,1,.447-8.191,70.575,70.575,0,0,1,2.041-9.938c1.257-4.408,1.919-6.73,3.381-8.859.838-1.22.933-.913,5.254-4.5,3.059-2.536,3.247-2.886,4.166-3.181a5.515,5.515,0,0,1,4.835.945c1.635,1.084,1.547,1.966,3.716,3.47,1.586,1.1,1.867.792,2.521,1.754.914,1.344.824,2.62,1.756,5.841.906,3.132,1.165,2.527,1.64,4.55a30.32,30.32,0,0,1,.147,10.144,30.9,30.9,0,0,1-1.524,7.615c-.546,1.519-.725,1.506-2.736,5.272-2.639,4.943-2.808,5.862-4.107,7.341a16.1,16.1,0,0,1-3.129,2.433C224.738,1880.216,223.3,1881.191,222.056,1881.32Zm3.967-46.737a6.213,6.213,0,0,0-4.631,1.062,10.548,10.548,0,0,0-3.831,4.354c-.992,1.98-.725,2.642-2.1,5.688-1.122,2.483-1.517,2.527-1.9,4.111-.421,1.729-.065,2.15-.278,5.6-.214,3.473-.612,3.646-.489,5.355.093,1.289.665,2.583,1.8,5.118.725,1.612,1.346,2.805,2.559,5.124,1.5,2.872,1.721,3.149,2.065,3.419.674.529,1.586.528,3.409.526a6.872,6.872,0,0,0,2.98-.854h0c1.088-.745,1.276-1.405,3.417-4.088,2.418-3.031,2.822-3,3.627-4.742a44.645,44.645,0,0,0,1.484-4.526,31.652,31.652,0,0,0,1.33-5.159c.112-1.1.012-1.369-.382-5.42a57.3,57.3,0,0,0-.643-6.055,15.5,15.5,0,0,0-1.64-4.55c-.914-1.548-1.921-2.2-3.9-3.433A10.19,10.19,0,0,0,226.023,1834.583Z" fill="#f8c479"/>
      <path id="Tracé_283" data-name="Tracé 283" d="M229.9,1853.187a8.823,8.823,0,0,1-.6,3.489,9.37,9.37,0,0,1-1.193,2.251c-.861,1.214-2.572,3.627-4.75,3.325-1.311-.182-2.2-1.265-2.988-2.224a7.8,7.8,0,0,1-1.973-4.231,10.167,10.167,0,0,1,.381-3.424c.483-2.305.757-3.611,1.653-4.441.734-.68,1.532-.711,3.06-.77a5.714,5.714,0,0,1,2.455.228A6.841,6.841,0,0,1,229.9,1853.187Z" fill="#da9157"/>
    </g>
    <g id="Groupe_113" data-name="Groupe 113" transform="translate(2608.043 1238)">
      <path id="Tracé_264-2" data-name="Tracé 264" d="M1188.621,1891.27c-14.81,24.68-172,2.67-245.33,0s-210.11-10.67-259.57,0-163.1,11.13-204.73,7.13c-17.33-1.66-40.27-1.94-62.98-1.16-29.61,1.03-58.82,3.86-74.67,7.8-1.21.3-2.34.61-3.39.92C312.621,1913.51,236.7,1919,236.7,1919l-4.91-128.34s71.35,11.6,116.86,13.38c7.5.3,14.31.33,19.97-.01,25.49-1.52,61.28-3.93,95.99-3.67,19.75.14,39.14,1.15,56.11,3.67,37.39,5.56,101.02,2.23,125.02.67,1.64-.11,116.21-10.3,153.55-7.63,17.85,1.27,41.79,2.24,67.9,3.93,28.49,1.84,59.57,4.53,88.1,9.4,15.32,2.62,32.5,3.2,49.91,2.67,44.72-1.34,91-10,111.38-10.43,28.74-.6,62.94-10.91,81.61,23.76S1192.621,1884.6,1188.621,1891.27Z" fill="#9a5c33"/>
      <path id="Tracé_265-2" data-name="Tracé 265" d="M271.741,1818.71c14.21,10.36,44.88,15.52,34.21,20.27s-35.09,7.42-34.21,26.09-24.3,28.73-31.4,34.29,22.95,16.82,46.95,6.6c13.41-5.71,36.38-3.76,54.05-.92-1.21.3-2.34.61-3.39.92C312.621,1913.51,236.7,1919,236.7,1919l-4.91-128.34s71.35,11.6,116.86,13.38c-11.39,6.54-23.17,11.78-30.7,10.99C299.291,1813.069,257.521,1808.36,271.741,1818.71Z" fill="#8d5233"/>
      <path id="Tracé_266-2" data-name="Tracé 266" d="M1188.621,1891.27c-14.81,24.68-172,2.67-245.33,0s-210.11-10.67-259.57,0-163.1,11.13-204.73,7.13c-17.33-1.66-40.27-1.94-62.98-1.16,34.36-8.29,76.74-17.29,93.82-15.94,30.79,2.43,82,16.17,111.73,9.97s87.89-22.2,111.47-22.2,109.89,11.14,128.74,12.23,71.58-8.23,100.55-8.23,83.63,16.4,116.97,18.2,101.28-2.13,94.66-51.6c-2.66-19.94-49.33-22.67-66.66-24.64-15.24-1.72-51.08,15.01-102.09-1.96,44.72-1.34,91-10,111.38-10.43,28.74-.6,62.94-10.91,81.61,23.76S1192.621,1884.6,1188.621,1891.27Z" fill="#8d5233"/>
      <g id="Groupe_83-2" data-name="Groupe 83">
        <path id="Tracé_267-2" data-name="Tracé 267" d="M264.08,1867.191c-.582,3.138-3.874,10.571-10.459,25.437-8.878,20.044-11.988,24.265-16.921,26.369-6.705,2.86-13.4.371-15.853-.743-9.942-4.511-14.357-15.472-20.591-30.947-3.635-9.026-6.274-15.577-7.086-25.255A70.207,70.207,0,0,1,197.454,1832c2.939-7.7,6.374-12.179,13.243-21.138,10.306-13.443,15.459-20.164,21.092-20.194,11.434-.061,20.366,20.46,24.749,30.532C260.181,1829.568,267.81,1847.1,264.08,1867.191Z" fill="#8d5233"/>
        <path id="Tracé_268-2" data-name="Tracé 268" d="M254.771,1864.186c-.458,2.467-3.046,8.31-8.222,20-6.979,15.757-9.424,19.075-13.3,20.729-5.271,2.249-10.532.291-12.463-.584-7.816-3.546-11.286-12.162-16.187-24.328-2.858-7.095-4.932-12.245-5.57-19.854a55.181,55.181,0,0,1,3.368-23.627c2.311-6.052,5.011-9.574,10.41-16.617,8.1-10.568,12.153-15.852,16.581-15.875,8.989-.048,16.01,16.084,19.456,24C251.706,1834.61,257.7,1848.39,254.771,1864.186Z" fill="#da9157"/>
        <path id="Tracé_269-2" data-name="Tracé 269" d="M243.736,1855.163c-.446,8.727-1.215,23.813-10.766,31.685-1.52,1.253-7.376,6.08-13.5,3.832-3.715-1.364-6.068-4.8-6.86-5.952-1.771-2.583-2.2-4.559-4.005-11.05-3.482-12.535-3.617-11.448-3.844-13.7-.642-6.353.813-11.232,2.324-16.305a45.229,45.229,0,0,1,6.823-14.663c3.587-4.877,7.875-10.71,13.568-10.274,7.386.565,12.08,11.3,13.382,14.276C244.376,1841.051,244.084,1848.34,243.736,1855.163Z" fill="#ffd888"/>
      </g>
      <path id="Tracé_275-2" data-name="Tracé 275" d="M464.611,1818.713c-26.682-5.07-44.434-9.265-69.323-3.678s-56,24.254-68.444,23.365-36.444,22.222,0,21.333,97.778,13.333,67.556,16-37.333,24,60.444,1.778,104.678,3.555,148.339-6.222,144.487-14.222,207.408-5.333,174.92-13.333,208.7-4.444,61.333,14.222,83.555,12.444,71.023-11.584,18.623-19.125-44.13-19.986-68.709-23.541-65.629,0-90.438-4.445-74.956-15.659-100.549-14.5-92.26-2.623-111.815-6.063-41.778,5.186-64.889,12.428-83.53,17.02-121.321,12.576S484.67,1822.524,464.611,1818.713Z" fill="#a26339"/>
      <path id="Tracé_277-2" data-name="Tracé 277" d="M420.177,1830.1c-17.275.247-49.185,6.519-31.407,11.852s21.333,8.3,39.7,17.185,24.889-2.823,49.778-7.337,81.185,10.893,104.3,7.337,64-20.741,101.926-18.37,115.555-2.268,76.444-10.912-56.889-7.387-65.185-6.238-30.769,7.075-50.051,10.631-52.29,14.222-68.083,7.7-31.792,6.611-64.385.639S433.322,1829.915,420.177,1830.1Z" fill="#ab6b39"/>
      <path id="Tracé_278-2" data-name="Tracé 278" d="M830.4,1832.177c-13.479,2.4-23.111,4.389-34.667,10.417s-16.444,20.694,4,15.806,21.778-14.527,47.111-6.6,92.445-15.237,120-9.209,64.445,9.528,49.778,0-64.889-13.528-83.111-15.305S862.843,1826.4,830.4,1832.177Z" fill="#ab6b39"/>
      <path id="Tracé_279-2" data-name="Tracé 279" d="M363.288,1851.8c-6.249.766-23.845,14.152-40.367,18.6s-29.855,18.239-12.077,17.12,31.111-10.9,45.333-11.786,56.889,3.556,64.889-.889S391.732,1848.318,363.288,1851.8Z" fill="#b6703e"/>
      <path id="Tracé_280-2" data-name="Tracé 280" d="M777.535,1822.8c-14.449-1.91-42.24-2.933-33.577,3.665s66.441,14.987,96.663,16.126,64.991,7.248,55.111-4.194-64.889-17.288-80.889-17.533S790.037,1824.456,777.535,1822.8Z" fill="#b6703e"/>
      <path id="Tracé_281-2" data-name="Tracé 281" d="M1115.88,1826.468c-10.88-2.941-24.3.636-14.815,6.58s39.619,20.812,43.809,12.193S1126.547,1829.352,1115.88,1826.468Z" fill="#b6703e"/>
      <path id="Tracé_282-2" data-name="Tracé 282" d="M222.056,1881.32c-2.882.3-4.954-2.156-5.563-2.953-1.543-2.017-1.2-3.2-3.245-5.886-1.267-1.665-1.8-1.736-2.6-3.423a17.057,17.057,0,0,1-1.448-5.494,31.846,31.846,0,0,1,.447-8.191,70.575,70.575,0,0,1,2.041-9.938c1.257-4.408,1.919-6.73,3.381-8.859.838-1.22.933-.913,5.254-4.5,3.059-2.536,3.247-2.886,4.166-3.181a5.515,5.515,0,0,1,4.835.945c1.635,1.084,1.547,1.966,3.716,3.47,1.586,1.1,1.867.792,2.521,1.754.914,1.344.824,2.62,1.756,5.841.906,3.132,1.165,2.527,1.64,4.55a30.32,30.32,0,0,1,.147,10.144,30.9,30.9,0,0,1-1.524,7.615c-.546,1.519-.725,1.506-2.736,5.272-2.639,4.943-2.808,5.862-4.107,7.341a16.1,16.1,0,0,1-3.129,2.433C224.738,1880.216,223.3,1881.191,222.056,1881.32Zm3.967-46.737a6.213,6.213,0,0,0-4.631,1.062,10.548,10.548,0,0,0-3.831,4.354c-.992,1.98-.725,2.642-2.1,5.688-1.122,2.483-1.517,2.527-1.9,4.111-.421,1.729-.065,2.15-.278,5.6-.214,3.473-.612,3.646-.489,5.355.093,1.289.665,2.583,1.8,5.118.725,1.612,1.346,2.805,2.559,5.124,1.5,2.872,1.721,3.149,2.065,3.419.674.529,1.586.528,3.409.526a6.872,6.872,0,0,0,2.98-.854h0c1.088-.745,1.276-1.405,3.417-4.088,2.418-3.031,2.822-3,3.627-4.742a44.645,44.645,0,0,0,1.484-4.526,31.652,31.652,0,0,0,1.33-5.159c.112-1.1.012-1.369-.382-5.42a57.3,57.3,0,0,0-.643-6.055,15.5,15.5,0,0,0-1.64-4.55c-.914-1.548-1.921-2.2-3.9-3.433A10.19,10.19,0,0,0,226.023,1834.583Z" fill="#f8c479"/>
      <path id="Tracé_283-2" data-name="Tracé 283" d="M229.9,1853.187a8.823,8.823,0,0,1-.6,3.489,9.37,9.37,0,0,1-1.193,2.251c-.861,1.214-2.572,3.627-4.75,3.325-1.311-.182-2.2-1.265-2.988-2.224a7.8,7.8,0,0,1-1.973-4.231,10.167,10.167,0,0,1,.381-3.424c.483-2.305.757-3.611,1.653-4.441.734-.68,1.532-.711,3.06-.77a5.714,5.714,0,0,1,2.455.228A6.841,6.841,0,0,1,229.9,1853.187Z" fill="#da9157"/>
    </g>
    <g id="Groupe_118" data-name="Groupe 118" transform="translate(2548.043 1157)">
      <path id="Tracé_264-3" data-name="Tracé 264" d="M1188.621,1891.27c-14.81,24.68-172,2.67-245.33,0s-210.11-10.67-259.57,0-163.1,11.13-204.73,7.13c-17.33-1.66-40.27-1.94-62.98-1.16-29.61,1.03-58.82,3.86-74.67,7.8-1.21.3-2.34.61-3.39.92C312.621,1913.51,236.7,1919,236.7,1919l-4.91-128.34s71.35,11.6,116.86,13.38c7.5.3,14.31.33,19.97-.01,25.49-1.52,61.28-3.93,95.99-3.67,19.75.14,39.14,1.15,56.11,3.67,37.39,5.56,101.02,2.23,125.02.67,1.64-.11,116.21-10.3,153.55-7.63,17.85,1.27,41.79,2.24,67.9,3.93,28.49,1.84,59.57,4.53,88.1,9.4,15.32,2.62,32.5,3.2,49.91,2.67,44.72-1.34,91-10,111.38-10.43,28.74-.6,62.94-10.91,81.61,23.76S1192.621,1884.6,1188.621,1891.27Z" fill="#9a5c33"/>
      <path id="Tracé_265-3" data-name="Tracé 265" d="M271.741,1818.71c14.21,10.36,44.88,15.52,34.21,20.27s-35.09,7.42-34.21,26.09-24.3,28.73-31.4,34.29,22.95,16.82,46.95,6.6c13.41-5.71,36.38-3.76,54.05-.92-1.21.3-2.34.61-3.39.92C312.621,1913.51,236.7,1919,236.7,1919l-4.91-128.34s71.35,11.6,116.86,13.38c-11.39,6.54-23.17,11.78-30.7,10.99C299.291,1813.069,257.521,1808.36,271.741,1818.71Z" fill="#8d5233"/>
      <path id="Tracé_266-3" data-name="Tracé 266" d="M1188.621,1891.27c-14.81,24.68-172,2.67-245.33,0s-210.11-10.67-259.57,0-163.1,11.13-204.73,7.13c-17.33-1.66-40.27-1.94-62.98-1.16,34.36-8.29,76.74-17.29,93.82-15.94,30.79,2.43,82,16.17,111.73,9.97s87.89-22.2,111.47-22.2,109.89,11.14,128.74,12.23,71.58-8.23,100.55-8.23,83.63,16.4,116.97,18.2,101.28-2.13,94.66-51.6c-2.66-19.94-49.33-22.67-66.66-24.64-15.24-1.72-51.08,15.01-102.09-1.96,44.72-1.34,91-10,111.38-10.43,28.74-.6,62.94-10.91,81.61,23.76S1192.621,1884.6,1188.621,1891.27Z" fill="#8d5233"/>
      <g id="Groupe_83-3" data-name="Groupe 83">
        <path id="Tracé_267-3" data-name="Tracé 267" d="M264.08,1867.191c-.582,3.138-3.874,10.571-10.459,25.437-8.878,20.044-11.988,24.265-16.921,26.369-6.705,2.86-13.4.371-15.853-.743-9.942-4.511-14.357-15.472-20.591-30.947-3.635-9.026-6.274-15.577-7.086-25.255A70.207,70.207,0,0,1,197.454,1832c2.939-7.7,6.374-12.179,13.243-21.138,10.306-13.443,15.459-20.164,21.092-20.194,11.434-.061,20.366,20.46,24.749,30.532C260.181,1829.568,267.81,1847.1,264.08,1867.191Z" fill="#8d5233"/>
        <path id="Tracé_268-3" data-name="Tracé 268" d="M254.771,1864.186c-.458,2.467-3.046,8.31-8.222,20-6.979,15.757-9.424,19.075-13.3,20.729-5.271,2.249-10.532.291-12.463-.584-7.816-3.546-11.286-12.162-16.187-24.328-2.858-7.095-4.932-12.245-5.57-19.854a55.181,55.181,0,0,1,3.368-23.627c2.311-6.052,5.011-9.574,10.41-16.617,8.1-10.568,12.153-15.852,16.581-15.875,8.989-.048,16.01,16.084,19.456,24C251.706,1834.61,257.7,1848.39,254.771,1864.186Z" fill="#da9157"/>
        <path id="Tracé_269-3" data-name="Tracé 269" d="M243.736,1855.163c-.446,8.727-1.215,23.813-10.766,31.685-1.52,1.253-7.376,6.08-13.5,3.832-3.715-1.364-6.068-4.8-6.86-5.952-1.771-2.583-2.2-4.559-4.005-11.05-3.482-12.535-3.617-11.448-3.844-13.7-.642-6.353.813-11.232,2.324-16.305a45.229,45.229,0,0,1,6.823-14.663c3.587-4.877,7.875-10.71,13.568-10.274,7.386.565,12.08,11.3,13.382,14.276C244.376,1841.051,244.084,1848.34,243.736,1855.163Z" fill="#ffd888"/>
      </g>
      <path id="Tracé_275-3" data-name="Tracé 275" d="M464.611,1818.713c-26.682-5.07-44.434-9.265-69.323-3.678s-56,24.254-68.444,23.365-36.444,22.222,0,21.333,97.778,13.333,67.556,16-37.333,24,60.444,1.778,104.678,3.555,148.339-6.222,144.487-14.222,207.408-5.333,174.92-13.333,208.7-4.444,61.333,14.222,83.555,12.444,71.023-11.584,18.623-19.125-44.13-19.986-68.709-23.541-65.629,0-90.438-4.445-74.956-15.659-100.549-14.5-92.26-2.623-111.815-6.063-41.778,5.186-64.889,12.428-83.53,17.02-121.321,12.576S484.67,1822.524,464.611,1818.713Z" fill="#a26339"/>
      <path id="Tracé_277-3" data-name="Tracé 277" d="M420.177,1830.1c-17.275.247-49.185,6.519-31.407,11.852s21.333,8.3,39.7,17.185,24.889-2.823,49.778-7.337,81.185,10.893,104.3,7.337,64-20.741,101.926-18.37,115.555-2.268,76.444-10.912-56.889-7.387-65.185-6.238-30.769,7.075-50.051,10.631-52.29,14.222-68.083,7.7-31.792,6.611-64.385.639S433.322,1829.915,420.177,1830.1Z" fill="#ab6b39"/>
      <path id="Tracé_278-3" data-name="Tracé 278" d="M830.4,1832.177c-13.479,2.4-23.111,4.389-34.667,10.417s-16.444,20.694,4,15.806,21.778-14.527,47.111-6.6,92.445-15.237,120-9.209,64.445,9.528,49.778,0-64.889-13.528-83.111-15.305S862.843,1826.4,830.4,1832.177Z" fill="#ab6b39"/>
      <path id="Tracé_279-3" data-name="Tracé 279" d="M363.288,1851.8c-6.249.766-23.845,14.152-40.367,18.6s-29.855,18.239-12.077,17.12,31.111-10.9,45.333-11.786,56.889,3.556,64.889-.889S391.732,1848.318,363.288,1851.8Z" fill="#b6703e"/>
      <path id="Tracé_280-3" data-name="Tracé 280" d="M777.535,1822.8c-14.449-1.91-42.24-2.933-33.577,3.665s66.441,14.987,96.663,16.126,64.991,7.248,55.111-4.194-64.889-17.288-80.889-17.533S790.037,1824.456,777.535,1822.8Z" fill="#b6703e"/>
      <path id="Tracé_281-3" data-name="Tracé 281" d="M1115.88,1826.468c-10.88-2.941-24.3.636-14.815,6.58s39.619,20.812,43.809,12.193S1126.547,1829.352,1115.88,1826.468Z" fill="#b6703e"/>
      <path id="Tracé_282-3" data-name="Tracé 282" d="M222.056,1881.32c-2.882.3-4.954-2.156-5.563-2.953-1.543-2.017-1.2-3.2-3.245-5.886-1.267-1.665-1.8-1.736-2.6-3.423a17.057,17.057,0,0,1-1.448-5.494,31.846,31.846,0,0,1,.447-8.191,70.575,70.575,0,0,1,2.041-9.938c1.257-4.408,1.919-6.73,3.381-8.859.838-1.22.933-.913,5.254-4.5,3.059-2.536,3.247-2.886,4.166-3.181a5.515,5.515,0,0,1,4.835.945c1.635,1.084,1.547,1.966,3.716,3.47,1.586,1.1,1.867.792,2.521,1.754.914,1.344.824,2.62,1.756,5.841.906,3.132,1.165,2.527,1.64,4.55a30.32,30.32,0,0,1,.147,10.144,30.9,30.9,0,0,1-1.524,7.615c-.546,1.519-.725,1.506-2.736,5.272-2.639,4.943-2.808,5.862-4.107,7.341a16.1,16.1,0,0,1-3.129,2.433C224.738,1880.216,223.3,1881.191,222.056,1881.32Zm3.967-46.737a6.213,6.213,0,0,0-4.631,1.062,10.548,10.548,0,0,0-3.831,4.354c-.992,1.98-.725,2.642-2.1,5.688-1.122,2.483-1.517,2.527-1.9,4.111-.421,1.729-.065,2.15-.278,5.6-.214,3.473-.612,3.646-.489,5.355.093,1.289.665,2.583,1.8,5.118.725,1.612,1.346,2.805,2.559,5.124,1.5,2.872,1.721,3.149,2.065,3.419.674.529,1.586.528,3.409.526a6.872,6.872,0,0,0,2.98-.854h0c1.088-.745,1.276-1.405,3.417-4.088,2.418-3.031,2.822-3,3.627-4.742a44.645,44.645,0,0,0,1.484-4.526,31.652,31.652,0,0,0,1.33-5.159c.112-1.1.012-1.369-.382-5.42a57.3,57.3,0,0,0-.643-6.055,15.5,15.5,0,0,0-1.64-4.55c-.914-1.548-1.921-2.2-3.9-3.433A10.19,10.19,0,0,0,226.023,1834.583Z" fill="#f8c479"/>
      <path id="Tracé_283-3" data-name="Tracé 283" d="M229.9,1853.187a8.823,8.823,0,0,1-.6,3.489,9.37,9.37,0,0,1-1.193,2.251c-.861,1.214-2.572,3.627-4.75,3.325-1.311-.182-2.2-1.265-2.988-2.224a7.8,7.8,0,0,1-1.973-4.231,10.167,10.167,0,0,1,.381-3.424c.483-2.305.757-3.611,1.653-4.441.734-.68,1.532-.711,3.06-.77a5.714,5.714,0,0,1,2.455.228A6.841,6.841,0,0,1,229.9,1853.187Z" fill="#da9157"/>
    </g>
    <g id="Groupe_119" data-name="Groupe 119" transform="translate(2684.043 1193.168)">
      <path id="Tracé_264-4" data-name="Tracé 264" d="M1188.621,1891.27c-14.81,24.68-172,2.67-245.33,0s-210.11-10.67-259.57,0-163.1,11.13-204.73,7.13c-17.33-1.66-40.27-1.94-62.98-1.16-29.61,1.03-58.82,3.86-74.67,7.8-1.21.3-2.34.61-3.39.92C312.621,1913.51,236.7,1919,236.7,1919l-4.91-128.34s71.35,11.6,116.86,13.38c7.5.3,14.31.33,19.97-.01,25.49-1.52,61.28-3.93,95.99-3.67,19.75.14,39.14,1.15,56.11,3.67,37.39,5.56,101.02,2.23,125.02.67,1.64-.11,116.21-10.3,153.55-7.63,17.85,1.27,41.79,2.24,67.9,3.93,28.49,1.84,59.57,4.53,88.1,9.4,15.32,2.62,32.5,3.2,49.91,2.67,44.72-1.34,91-10,111.38-10.43,28.74-.6,62.94-10.91,81.61,23.76S1192.621,1884.6,1188.621,1891.27Z" fill="#9a5c33"/>
      <path id="Tracé_265-4" data-name="Tracé 265" d="M271.741,1818.71c14.21,10.36,44.88,15.52,34.21,20.27s-35.09,7.42-34.21,26.09-24.3,28.73-31.4,34.29,22.95,16.82,46.95,6.6c13.41-5.71,36.38-3.76,54.05-.92-1.21.3-2.34.61-3.39.92C312.621,1913.51,236.7,1919,236.7,1919l-4.91-128.34s71.35,11.6,116.86,13.38c-11.39,6.54-23.17,11.78-30.7,10.99C299.291,1813.069,257.521,1808.36,271.741,1818.71Z" fill="#8d5233"/>
      <path id="Tracé_266-4" data-name="Tracé 266" d="M1188.621,1891.27c-14.81,24.68-172,2.67-245.33,0s-210.11-10.67-259.57,0-163.1,11.13-204.73,7.13c-17.33-1.66-40.27-1.94-62.98-1.16,34.36-8.29,76.74-17.29,93.82-15.94,30.79,2.43,82,16.17,111.73,9.97s87.89-22.2,111.47-22.2,109.89,11.14,128.74,12.23,71.58-8.23,100.55-8.23,83.63,16.4,116.97,18.2,101.28-2.13,94.66-51.6c-2.66-19.94-49.33-22.67-66.66-24.64-15.24-1.72-51.08,15.01-102.09-1.96,44.72-1.34,91-10,111.38-10.43,28.74-.6,62.94-10.91,81.61,23.76S1192.621,1884.6,1188.621,1891.27Z" fill="#8d5233"/>
      <g id="Groupe_83-4" data-name="Groupe 83">
        <path id="Tracé_267-4" data-name="Tracé 267" d="M264.08,1867.191c-.582,3.138-3.874,10.571-10.459,25.437-8.878,20.044-11.988,24.265-16.921,26.369-6.705,2.86-13.4.371-15.853-.743-9.942-4.511-14.357-15.472-20.591-30.947-3.635-9.026-6.274-15.577-7.086-25.255A70.207,70.207,0,0,1,197.454,1832c2.939-7.7,6.374-12.179,13.243-21.138,10.306-13.443,15.459-20.164,21.092-20.194,11.434-.061,20.366,20.46,24.749,30.532C260.181,1829.568,267.81,1847.1,264.08,1867.191Z" fill="#8d5233"/>
        <path id="Tracé_268-4" data-name="Tracé 268" d="M254.771,1864.186c-.458,2.467-3.046,8.31-8.222,20-6.979,15.757-9.424,19.075-13.3,20.729-5.271,2.249-10.532.291-12.463-.584-7.816-3.546-11.286-12.162-16.187-24.328-2.858-7.095-4.932-12.245-5.57-19.854a55.181,55.181,0,0,1,3.368-23.627c2.311-6.052,5.011-9.574,10.41-16.617,8.1-10.568,12.153-15.852,16.581-15.875,8.989-.048,16.01,16.084,19.456,24C251.706,1834.61,257.7,1848.39,254.771,1864.186Z" fill="#da9157"/>
        <path id="Tracé_269-4" data-name="Tracé 269" d="M243.736,1855.163c-.446,8.727-1.215,23.813-10.766,31.685-1.52,1.253-7.376,6.08-13.5,3.832-3.715-1.364-6.068-4.8-6.86-5.952-1.771-2.583-2.2-4.559-4.005-11.05-3.482-12.535-3.617-11.448-3.844-13.7-.642-6.353.813-11.232,2.324-16.305a45.229,45.229,0,0,1,6.823-14.663c3.587-4.877,7.875-10.71,13.568-10.274,7.386.565,12.08,11.3,13.382,14.276C244.376,1841.051,244.084,1848.34,243.736,1855.163Z" fill="#ffd888"/>
      </g>
      <path id="Tracé_275-4" data-name="Tracé 275" d="M464.611,1818.713c-26.682-5.07-44.434-9.265-69.323-3.678s-56,24.254-68.444,23.365-36.444,22.222,0,21.333,97.778,13.333,67.556,16-37.333,24,60.444,1.778,104.678,3.555,148.339-6.222,144.487-14.222,207.408-5.333,174.92-13.333,208.7-4.444,61.333,14.222,83.555,12.444,71.023-11.584,18.623-19.125-44.13-19.986-68.709-23.541-65.629,0-90.438-4.445-74.956-15.659-100.549-14.5-92.26-2.623-111.815-6.063-41.778,5.186-64.889,12.428-83.53,17.02-121.321,12.576S484.67,1822.524,464.611,1818.713Z" fill="#a26339"/>
      <path id="Tracé_277-4" data-name="Tracé 277" d="M420.177,1830.1c-17.275.247-49.185,6.519-31.407,11.852s21.333,8.3,39.7,17.185,24.889-2.823,49.778-7.337,81.185,10.893,104.3,7.337,64-20.741,101.926-18.37,115.555-2.268,76.444-10.912-56.889-7.387-65.185-6.238-30.769,7.075-50.051,10.631-52.29,14.222-68.083,7.7-31.792,6.611-64.385.639S433.322,1829.915,420.177,1830.1Z" fill="#ab6b39"/>
      <path id="Tracé_278-4" data-name="Tracé 278" d="M830.4,1832.177c-13.479,2.4-23.111,4.389-34.667,10.417s-16.444,20.694,4,15.806,21.778-14.527,47.111-6.6,92.445-15.237,120-9.209,64.445,9.528,49.778,0-64.889-13.528-83.111-15.305S862.843,1826.4,830.4,1832.177Z" fill="#ab6b39"/>
      <path id="Tracé_279-4" data-name="Tracé 279" d="M363.288,1851.8c-6.249.766-23.845,14.152-40.367,18.6s-29.855,18.239-12.077,17.12,31.111-10.9,45.333-11.786,56.889,3.556,64.889-.889S391.732,1848.318,363.288,1851.8Z" fill="#b6703e"/>
      <path id="Tracé_280-4" data-name="Tracé 280" d="M777.535,1822.8c-14.449-1.91-42.24-2.933-33.577,3.665s66.441,14.987,96.663,16.126,64.991,7.248,55.111-4.194-64.889-17.288-80.889-17.533S790.037,1824.456,777.535,1822.8Z" fill="#b6703e"/>
      <path id="Tracé_281-4" data-name="Tracé 281" d="M1115.88,1826.468c-10.88-2.941-24.3.636-14.815,6.58s39.619,20.812,43.809,12.193S1126.547,1829.352,1115.88,1826.468Z" fill="#b6703e"/>
      <path id="Tracé_282-4" data-name="Tracé 282" d="M222.056,1881.32c-2.882.3-4.954-2.156-5.563-2.953-1.543-2.017-1.2-3.2-3.245-5.886-1.267-1.665-1.8-1.736-2.6-3.423a17.057,17.057,0,0,1-1.448-5.494,31.846,31.846,0,0,1,.447-8.191,70.575,70.575,0,0,1,2.041-9.938c1.257-4.408,1.919-6.73,3.381-8.859.838-1.22.933-.913,5.254-4.5,3.059-2.536,3.247-2.886,4.166-3.181a5.515,5.515,0,0,1,4.835.945c1.635,1.084,1.547,1.966,3.716,3.47,1.586,1.1,1.867.792,2.521,1.754.914,1.344.824,2.62,1.756,5.841.906,3.132,1.165,2.527,1.64,4.55a30.32,30.32,0,0,1,.147,10.144,30.9,30.9,0,0,1-1.524,7.615c-.546,1.519-.725,1.506-2.736,5.272-2.639,4.943-2.808,5.862-4.107,7.341a16.1,16.1,0,0,1-3.129,2.433C224.738,1880.216,223.3,1881.191,222.056,1881.32Zm3.967-46.737a6.213,6.213,0,0,0-4.631,1.062,10.548,10.548,0,0,0-3.831,4.354c-.992,1.98-.725,2.642-2.1,5.688-1.122,2.483-1.517,2.527-1.9,4.111-.421,1.729-.065,2.15-.278,5.6-.214,3.473-.612,3.646-.489,5.355.093,1.289.665,2.583,1.8,5.118.725,1.612,1.346,2.805,2.559,5.124,1.5,2.872,1.721,3.149,2.065,3.419.674.529,1.586.528,3.409.526a6.872,6.872,0,0,0,2.98-.854h0c1.088-.745,1.276-1.405,3.417-4.088,2.418-3.031,2.822-3,3.627-4.742a44.645,44.645,0,0,0,1.484-4.526,31.652,31.652,0,0,0,1.33-5.159c.112-1.1.012-1.369-.382-5.42a57.3,57.3,0,0,0-.643-6.055,15.5,15.5,0,0,0-1.64-4.55c-.914-1.548-1.921-2.2-3.9-3.433A10.19,10.19,0,0,0,226.023,1834.583Z" fill="#f8c479"/>
      <path id="Tracé_283-4" data-name="Tracé 283" d="M229.9,1853.187a8.823,8.823,0,0,1-.6,3.489,9.37,9.37,0,0,1-1.193,2.251c-.861,1.214-2.572,3.627-4.75,3.325-1.311-.182-2.2-1.265-2.988-2.224a7.8,7.8,0,0,1-1.973-4.231,10.167,10.167,0,0,1,.381-3.424c.483-2.305.757-3.611,1.653-4.441.734-.68,1.532-.711,3.06-.77a5.714,5.714,0,0,1,2.455.228A6.841,6.841,0,0,1,229.9,1853.187Z" fill="#da9157"/>
    </g>
    <g id="Groupe_114" data-name="Groupe 114" transform="translate(2608.043 1377.832)">
      <path id="Tracé_264-5" data-name="Tracé 264" d="M1188.621,1891.27c-14.81,24.68-172,2.67-245.33,0s-210.11-10.67-259.57,0-163.1,11.13-204.73,7.13c-17.33-1.66-40.27-1.94-62.98-1.16-29.61,1.03-58.82,3.86-74.67,7.8-1.21.3-2.34.61-3.39.92C312.621,1913.51,236.7,1919,236.7,1919l-4.91-128.34s71.35,11.6,116.86,13.38c7.5.3,14.31.33,19.97-.01,25.49-1.52,61.28-3.93,95.99-3.67,19.75.14,39.14,1.15,56.11,3.67,37.39,5.56,101.02,2.23,125.02.67,1.64-.11,116.21-10.3,153.55-7.63,17.85,1.27,41.79,2.24,67.9,3.93,28.49,1.84,59.57,4.53,88.1,9.4,15.32,2.62,32.5,3.2,49.91,2.67,44.72-1.34,91-10,111.38-10.43,28.74-.6,62.94-10.91,81.61,23.76S1192.621,1884.6,1188.621,1891.27Z" fill="#9a5c33"/>
      <path id="Tracé_265-5" data-name="Tracé 265" d="M271.741,1818.71c14.21,10.36,44.88,15.52,34.21,20.27s-35.09,7.42-34.21,26.09-24.3,28.73-31.4,34.29,22.95,16.82,46.95,6.6c13.41-5.71,36.38-3.76,54.05-.92-1.21.3-2.34.61-3.39.92C312.621,1913.51,236.7,1919,236.7,1919l-4.91-128.34s71.35,11.6,116.86,13.38c-11.39,6.54-23.17,11.78-30.7,10.99C299.291,1813.069,257.521,1808.36,271.741,1818.71Z" fill="#8d5233"/>
      <path id="Tracé_266-5" data-name="Tracé 266" d="M1188.621,1891.27c-14.81,24.68-172,2.67-245.33,0s-210.11-10.67-259.57,0-163.1,11.13-204.73,7.13c-17.33-1.66-40.27-1.94-62.98-1.16,34.36-8.29,76.74-17.29,93.82-15.94,30.79,2.43,82,16.17,111.73,9.97s87.89-22.2,111.47-22.2,109.89,11.14,128.74,12.23,71.58-8.23,100.55-8.23,83.63,16.4,116.97,18.2,101.28-2.13,94.66-51.6c-2.66-19.94-49.33-22.67-66.66-24.64-15.24-1.72-51.08,15.01-102.09-1.96,44.72-1.34,91-10,111.38-10.43,28.74-.6,62.94-10.91,81.61,23.76S1192.621,1884.6,1188.621,1891.27Z" fill="#8d5233"/>
      <g id="Groupe_83-5" data-name="Groupe 83">
        <path id="Tracé_267-5" data-name="Tracé 267" d="M264.08,1867.191c-.582,3.138-3.874,10.571-10.459,25.437-8.878,20.044-11.988,24.265-16.921,26.369-6.705,2.86-13.4.371-15.853-.743-9.942-4.511-14.357-15.472-20.591-30.947-3.635-9.026-6.274-15.577-7.086-25.255A70.207,70.207,0,0,1,197.454,1832c2.939-7.7,6.374-12.179,13.243-21.138,10.306-13.443,15.459-20.164,21.092-20.194,11.434-.061,20.366,20.46,24.749,30.532C260.181,1829.568,267.81,1847.1,264.08,1867.191Z" fill="#8d5233"/>
        <path id="Tracé_268-5" data-name="Tracé 268" d="M254.771,1864.186c-.458,2.467-3.046,8.31-8.222,20-6.979,15.757-9.424,19.075-13.3,20.729-5.271,2.249-10.532.291-12.463-.584-7.816-3.546-11.286-12.162-16.187-24.328-2.858-7.095-4.932-12.245-5.57-19.854a55.181,55.181,0,0,1,3.368-23.627c2.311-6.052,5.011-9.574,10.41-16.617,8.1-10.568,12.153-15.852,16.581-15.875,8.989-.048,16.01,16.084,19.456,24C251.706,1834.61,257.7,1848.39,254.771,1864.186Z" fill="#da9157"/>
        <path id="Tracé_269-5" data-name="Tracé 269" d="M243.736,1855.163c-.446,8.727-1.215,23.813-10.766,31.685-1.52,1.253-7.376,6.08-13.5,3.832-3.715-1.364-6.068-4.8-6.86-5.952-1.771-2.583-2.2-4.559-4.005-11.05-3.482-12.535-3.617-11.448-3.844-13.7-.642-6.353.813-11.232,2.324-16.305a45.229,45.229,0,0,1,6.823-14.663c3.587-4.877,7.875-10.71,13.568-10.274,7.386.565,12.08,11.3,13.382,14.276C244.376,1841.051,244.084,1848.34,243.736,1855.163Z" fill="#ffd888"/>
      </g>
      <path id="Tracé_275-5" data-name="Tracé 275" d="M464.611,1818.713c-26.682-5.07-44.434-9.265-69.323-3.678s-56,24.254-68.444,23.365-36.444,22.222,0,21.333,97.778,13.333,67.556,16-37.333,24,60.444,1.778,104.678,3.555,148.339-6.222,144.487-14.222,207.408-5.333,174.92-13.333,208.7-4.444,61.333,14.222,83.555,12.444,71.023-11.584,18.623-19.125-44.13-19.986-68.709-23.541-65.629,0-90.438-4.445-74.956-15.659-100.549-14.5-92.26-2.623-111.815-6.063-41.778,5.186-64.889,12.428-83.53,17.02-121.321,12.576S484.67,1822.524,464.611,1818.713Z" fill="#a26339"/>
      <path id="Tracé_277-5" data-name="Tracé 277" d="M420.177,1830.1c-17.275.247-49.185,6.519-31.407,11.852s21.333,8.3,39.7,17.185,24.889-2.823,49.778-7.337,81.185,10.893,104.3,7.337,64-20.741,101.926-18.37,115.555-2.268,76.444-10.912-56.889-7.387-65.185-6.238-30.769,7.075-50.051,10.631-52.29,14.222-68.083,7.7-31.792,6.611-64.385.639S433.322,1829.915,420.177,1830.1Z" fill="#ab6b39"/>
      <path id="Tracé_278-5" data-name="Tracé 278" d="M830.4,1832.177c-13.479,2.4-23.111,4.389-34.667,10.417s-16.444,20.694,4,15.806,21.778-14.527,47.111-6.6,92.445-15.237,120-9.209,64.445,9.528,49.778,0-64.889-13.528-83.111-15.305S862.843,1826.4,830.4,1832.177Z" fill="#ab6b39"/>
      <path id="Tracé_279-5" data-name="Tracé 279" d="M363.288,1851.8c-6.249.766-23.845,14.152-40.367,18.6s-29.855,18.239-12.077,17.12,31.111-10.9,45.333-11.786,56.889,3.556,64.889-.889S391.732,1848.318,363.288,1851.8Z" fill="#b6703e"/>
      <path id="Tracé_280-5" data-name="Tracé 280" d="M777.535,1822.8c-14.449-1.91-42.24-2.933-33.577,3.665s66.441,14.987,96.663,16.126,64.991,7.248,55.111-4.194-64.889-17.288-80.889-17.533S790.037,1824.456,777.535,1822.8Z" fill="#b6703e"/>
      <path id="Tracé_281-5" data-name="Tracé 281" d="M1115.88,1826.468c-10.88-2.941-24.3.636-14.815,6.58s39.619,20.812,43.809,12.193S1126.547,1829.352,1115.88,1826.468Z" fill="#b6703e"/>
      <path id="Tracé_282-5" data-name="Tracé 282" d="M222.056,1881.32c-2.882.3-4.954-2.156-5.563-2.953-1.543-2.017-1.2-3.2-3.245-5.886-1.267-1.665-1.8-1.736-2.6-3.423a17.057,17.057,0,0,1-1.448-5.494,31.846,31.846,0,0,1,.447-8.191,70.575,70.575,0,0,1,2.041-9.938c1.257-4.408,1.919-6.73,3.381-8.859.838-1.22.933-.913,5.254-4.5,3.059-2.536,3.247-2.886,4.166-3.181a5.515,5.515,0,0,1,4.835.945c1.635,1.084,1.547,1.966,3.716,3.47,1.586,1.1,1.867.792,2.521,1.754.914,1.344.824,2.62,1.756,5.841.906,3.132,1.165,2.527,1.64,4.55a30.32,30.32,0,0,1,.147,10.144,30.9,30.9,0,0,1-1.524,7.615c-.546,1.519-.725,1.506-2.736,5.272-2.639,4.943-2.808,5.862-4.107,7.341a16.1,16.1,0,0,1-3.129,2.433C224.738,1880.216,223.3,1881.191,222.056,1881.32Zm3.967-46.737a6.213,6.213,0,0,0-4.631,1.062,10.548,10.548,0,0,0-3.831,4.354c-.992,1.98-.725,2.642-2.1,5.688-1.122,2.483-1.517,2.527-1.9,4.111-.421,1.729-.065,2.15-.278,5.6-.214,3.473-.612,3.646-.489,5.355.093,1.289.665,2.583,1.8,5.118.725,1.612,1.346,2.805,2.559,5.124,1.5,2.872,1.721,3.149,2.065,3.419.674.529,1.586.528,3.409.526a6.872,6.872,0,0,0,2.98-.854h0c1.088-.745,1.276-1.405,3.417-4.088,2.418-3.031,2.822-3,3.627-4.742a44.645,44.645,0,0,0,1.484-4.526,31.652,31.652,0,0,0,1.33-5.159c.112-1.1.012-1.369-.382-5.42a57.3,57.3,0,0,0-.643-6.055,15.5,15.5,0,0,0-1.64-4.55c-.914-1.548-1.921-2.2-3.9-3.433A10.19,10.19,0,0,0,226.023,1834.583Z" fill="#f8c479"/>
      <path id="Tracé_283-5" data-name="Tracé 283" d="M229.9,1853.187a8.823,8.823,0,0,1-.6,3.489,9.37,9.37,0,0,1-1.193,2.251c-.861,1.214-2.572,3.627-4.75,3.325-1.311-.182-2.2-1.265-2.988-2.224a7.8,7.8,0,0,1-1.973-4.231,10.167,10.167,0,0,1,.381-3.424c.483-2.305.757-3.611,1.653-4.441.734-.68,1.532-.711,3.06-.77a5.714,5.714,0,0,1,2.455.228A6.841,6.841,0,0,1,229.9,1853.187Z" fill="#da9157"/>
    </g>
    <g id="Groupe_115" data-name="Groupe 115" transform="translate(2474.043 1414.832)">
      <path id="Tracé_264-6" data-name="Tracé 264" d="M1188.621,1891.27c-14.81,24.68-172,2.67-245.33,0s-210.11-10.67-259.57,0-163.1,11.13-204.73,7.13c-17.33-1.66-40.27-1.94-62.98-1.16-29.61,1.03-58.82,3.86-74.67,7.8-1.21.3-2.34.61-3.39.92C312.621,1913.51,236.7,1919,236.7,1919l-4.91-128.34s71.35,11.6,116.86,13.38c7.5.3,14.31.33,19.97-.01,25.49-1.52,61.28-3.93,95.99-3.67,19.75.14,39.14,1.15,56.11,3.67,37.39,5.56,101.02,2.23,125.02.67,1.64-.11,116.21-10.3,153.55-7.63,17.85,1.27,41.79,2.24,67.9,3.93,28.49,1.84,59.57,4.53,88.1,9.4,15.32,2.62,32.5,3.2,49.91,2.67,44.72-1.34,91-10,111.38-10.43,28.74-.6,62.94-10.91,81.61,23.76S1192.621,1884.6,1188.621,1891.27Z" fill="#9a5c33"/>
      <path id="Tracé_265-6" data-name="Tracé 265" d="M271.741,1818.71c14.21,10.36,44.88,15.52,34.21,20.27s-35.09,7.42-34.21,26.09-24.3,28.73-31.4,34.29,22.95,16.82,46.95,6.6c13.41-5.71,36.38-3.76,54.05-.92-1.21.3-2.34.61-3.39.92C312.621,1913.51,236.7,1919,236.7,1919l-4.91-128.34s71.35,11.6,116.86,13.38c-11.39,6.54-23.17,11.78-30.7,10.99C299.291,1813.069,257.521,1808.36,271.741,1818.71Z" fill="#8d5233"/>
      <path id="Tracé_266-6" data-name="Tracé 266" d="M1188.621,1891.27c-14.81,24.68-172,2.67-245.33,0s-210.11-10.67-259.57,0-163.1,11.13-204.73,7.13c-17.33-1.66-40.27-1.94-62.98-1.16,34.36-8.29,76.74-17.29,93.82-15.94,30.79,2.43,82,16.17,111.73,9.97s87.89-22.2,111.47-22.2,109.89,11.14,128.74,12.23,71.58-8.23,100.55-8.23,83.63,16.4,116.97,18.2,101.28-2.13,94.66-51.6c-2.66-19.94-49.33-22.67-66.66-24.64-15.24-1.72-51.08,15.01-102.09-1.96,44.72-1.34,91-10,111.38-10.43,28.74-.6,62.94-10.91,81.61,23.76S1192.621,1884.6,1188.621,1891.27Z" fill="#8d5233"/>
      <g id="Groupe_83-6" data-name="Groupe 83">
        <path id="Tracé_267-6" data-name="Tracé 267" d="M264.08,1867.191c-.582,3.138-3.874,10.571-10.459,25.437-8.878,20.044-11.988,24.265-16.921,26.369-6.705,2.86-13.4.371-15.853-.743-9.942-4.511-14.357-15.472-20.591-30.947-3.635-9.026-6.274-15.577-7.086-25.255A70.207,70.207,0,0,1,197.454,1832c2.939-7.7,6.374-12.179,13.243-21.138,10.306-13.443,15.459-20.164,21.092-20.194,11.434-.061,20.366,20.46,24.749,30.532C260.181,1829.568,267.81,1847.1,264.08,1867.191Z" fill="#8d5233"/>
        <path id="Tracé_268-6" data-name="Tracé 268" d="M254.771,1864.186c-.458,2.467-3.046,8.31-8.222,20-6.979,15.757-9.424,19.075-13.3,20.729-5.271,2.249-10.532.291-12.463-.584-7.816-3.546-11.286-12.162-16.187-24.328-2.858-7.095-4.932-12.245-5.57-19.854a55.181,55.181,0,0,1,3.368-23.627c2.311-6.052,5.011-9.574,10.41-16.617,8.1-10.568,12.153-15.852,16.581-15.875,8.989-.048,16.01,16.084,19.456,24C251.706,1834.61,257.7,1848.39,254.771,1864.186Z" fill="#da9157"/>
        <path id="Tracé_269-6" data-name="Tracé 269" d="M243.736,1855.163c-.446,8.727-1.215,23.813-10.766,31.685-1.52,1.253-7.376,6.08-13.5,3.832-3.715-1.364-6.068-4.8-6.86-5.952-1.771-2.583-2.2-4.559-4.005-11.05-3.482-12.535-3.617-11.448-3.844-13.7-.642-6.353.813-11.232,2.324-16.305a45.229,45.229,0,0,1,6.823-14.663c3.587-4.877,7.875-10.71,13.568-10.274,7.386.565,12.08,11.3,13.382,14.276C244.376,1841.051,244.084,1848.34,243.736,1855.163Z" fill="#ffd888"/>
      </g>
      <path id="Tracé_275-6" data-name="Tracé 275" d="M464.611,1818.713c-26.682-5.07-44.434-9.265-69.323-3.678s-56,24.254-68.444,23.365-36.444,22.222,0,21.333,97.778,13.333,67.556,16-37.333,24,60.444,1.778,104.678,3.555,148.339-6.222,144.487-14.222,207.408-5.333,174.92-13.333,208.7-4.444,61.333,14.222,83.555,12.444,71.023-11.584,18.623-19.125-44.13-19.986-68.709-23.541-65.629,0-90.438-4.445-74.956-15.659-100.549-14.5-92.26-2.623-111.815-6.063-41.778,5.186-64.889,12.428-83.53,17.02-121.321,12.576S484.67,1822.524,464.611,1818.713Z" fill="#a26339"/>
      <path id="Tracé_277-6" data-name="Tracé 277" d="M420.177,1830.1c-17.275.247-49.185,6.519-31.407,11.852s21.333,8.3,39.7,17.185,24.889-2.823,49.778-7.337,81.185,10.893,104.3,7.337,64-20.741,101.926-18.37,115.555-2.268,76.444-10.912-56.889-7.387-65.185-6.238-30.769,7.075-50.051,10.631-52.29,14.222-68.083,7.7-31.792,6.611-64.385.639S433.322,1829.915,420.177,1830.1Z" fill="#ab6b39"/>
      <path id="Tracé_278-6" data-name="Tracé 278" d="M830.4,1832.177c-13.479,2.4-23.111,4.389-34.667,10.417s-16.444,20.694,4,15.806,21.778-14.527,47.111-6.6,92.445-15.237,120-9.209,64.445,9.528,49.778,0-64.889-13.528-83.111-15.305S862.843,1826.4,830.4,1832.177Z" fill="#ab6b39"/>
      <path id="Tracé_279-6" data-name="Tracé 279" d="M363.288,1851.8c-6.249.766-23.845,14.152-40.367,18.6s-29.855,18.239-12.077,17.12,31.111-10.9,45.333-11.786,56.889,3.556,64.889-.889S391.732,1848.318,363.288,1851.8Z" fill="#b6703e"/>
      <path id="Tracé_280-6" data-name="Tracé 280" d="M777.535,1822.8c-14.449-1.91-42.24-2.933-33.577,3.665s66.441,14.987,96.663,16.126,64.991,7.248,55.111-4.194-64.889-17.288-80.889-17.533S790.037,1824.456,777.535,1822.8Z" fill="#b6703e"/>
      <path id="Tracé_281-6" data-name="Tracé 281" d="M1115.88,1826.468c-10.88-2.941-24.3.636-14.815,6.58s39.619,20.812,43.809,12.193S1126.547,1829.352,1115.88,1826.468Z" fill="#b6703e"/>
      <path id="Tracé_282-6" data-name="Tracé 282" d="M222.056,1881.32c-2.882.3-4.954-2.156-5.563-2.953-1.543-2.017-1.2-3.2-3.245-5.886-1.267-1.665-1.8-1.736-2.6-3.423a17.057,17.057,0,0,1-1.448-5.494,31.846,31.846,0,0,1,.447-8.191,70.575,70.575,0,0,1,2.041-9.938c1.257-4.408,1.919-6.73,3.381-8.859.838-1.22.933-.913,5.254-4.5,3.059-2.536,3.247-2.886,4.166-3.181a5.515,5.515,0,0,1,4.835.945c1.635,1.084,1.547,1.966,3.716,3.47,1.586,1.1,1.867.792,2.521,1.754.914,1.344.824,2.62,1.756,5.841.906,3.132,1.165,2.527,1.64,4.55a30.32,30.32,0,0,1,.147,10.144,30.9,30.9,0,0,1-1.524,7.615c-.546,1.519-.725,1.506-2.736,5.272-2.639,4.943-2.808,5.862-4.107,7.341a16.1,16.1,0,0,1-3.129,2.433C224.738,1880.216,223.3,1881.191,222.056,1881.32Zm3.967-46.737a6.213,6.213,0,0,0-4.631,1.062,10.548,10.548,0,0,0-3.831,4.354c-.992,1.98-.725,2.642-2.1,5.688-1.122,2.483-1.517,2.527-1.9,4.111-.421,1.729-.065,2.15-.278,5.6-.214,3.473-.612,3.646-.489,5.355.093,1.289.665,2.583,1.8,5.118.725,1.612,1.346,2.805,2.559,5.124,1.5,2.872,1.721,3.149,2.065,3.419.674.529,1.586.528,3.409.526a6.872,6.872,0,0,0,2.98-.854h0c1.088-.745,1.276-1.405,3.417-4.088,2.418-3.031,2.822-3,3.627-4.742a44.645,44.645,0,0,0,1.484-4.526,31.652,31.652,0,0,0,1.33-5.159c.112-1.1.012-1.369-.382-5.42a57.3,57.3,0,0,0-.643-6.055,15.5,15.5,0,0,0-1.64-4.55c-.914-1.548-1.921-2.2-3.9-3.433A10.19,10.19,0,0,0,226.023,1834.583Z" fill="#f8c479"/>
      <path id="Tracé_283-6" data-name="Tracé 283" d="M229.9,1853.187a8.823,8.823,0,0,1-.6,3.489,9.37,9.37,0,0,1-1.193,2.251c-.861,1.214-2.572,3.627-4.75,3.325-1.311-.182-2.2-1.265-2.988-2.224a7.8,7.8,0,0,1-1.973-4.231,10.167,10.167,0,0,1,.381-3.424c.483-2.305.757-3.611,1.653-4.441.734-.68,1.532-.711,3.06-.77a5.714,5.714,0,0,1,2.455.228A6.841,6.841,0,0,1,229.9,1853.187Z" fill="#da9157"/>
    </g>
    <g id="Groupe_116" data-name="Groupe 116" transform="translate(2698.043 1322.832)">
      <path id="Tracé_264-7" data-name="Tracé 264" d="M1188.621,1891.27c-14.81,24.68-172,2.67-245.33,0s-210.11-10.67-259.57,0-163.1,11.13-204.73,7.13c-17.33-1.66-40.27-1.94-62.98-1.16-29.61,1.03-58.82,3.86-74.67,7.8-1.21.3-2.34.61-3.39.92C312.621,1913.51,236.7,1919,236.7,1919l-4.91-128.34s71.35,11.6,116.86,13.38c7.5.3,14.31.33,19.97-.01,25.49-1.52,61.28-3.93,95.99-3.67,19.75.14,39.14,1.15,56.11,3.67,37.39,5.56,101.02,2.23,125.02.67,1.64-.11,116.21-10.3,153.55-7.63,17.85,1.27,41.79,2.24,67.9,3.93,28.49,1.84,59.57,4.53,88.1,9.4,15.32,2.62,32.5,3.2,49.91,2.67,44.72-1.34,91-10,111.38-10.43,28.74-.6,62.94-10.91,81.61,23.76S1192.621,1884.6,1188.621,1891.27Z" fill="#9a5c33"/>
      <path id="Tracé_265-7" data-name="Tracé 265" d="M271.741,1818.71c14.21,10.36,44.88,15.52,34.21,20.27s-35.09,7.42-34.21,26.09-24.3,28.73-31.4,34.29,22.95,16.82,46.95,6.6c13.41-5.71,36.38-3.76,54.05-.92-1.21.3-2.34.61-3.39.92C312.621,1913.51,236.7,1919,236.7,1919l-4.91-128.34s71.35,11.6,116.86,13.38c-11.39,6.54-23.17,11.78-30.7,10.99C299.291,1813.069,257.521,1808.36,271.741,1818.71Z" fill="#8d5233"/>
      <path id="Tracé_266-7" data-name="Tracé 266" d="M1188.621,1891.27c-14.81,24.68-172,2.67-245.33,0s-210.11-10.67-259.57,0-163.1,11.13-204.73,7.13c-17.33-1.66-40.27-1.94-62.98-1.16,34.36-8.29,76.74-17.29,93.82-15.94,30.79,2.43,82,16.17,111.73,9.97s87.89-22.2,111.47-22.2,109.89,11.14,128.74,12.23,71.58-8.23,100.55-8.23,83.63,16.4,116.97,18.2,101.28-2.13,94.66-51.6c-2.66-19.94-49.33-22.67-66.66-24.64-15.24-1.72-51.08,15.01-102.09-1.96,44.72-1.34,91-10,111.38-10.43,28.74-.6,62.94-10.91,81.61,23.76S1192.621,1884.6,1188.621,1891.27Z" fill="#8d5233"/>
      <g id="Groupe_83-7" data-name="Groupe 83">
        <path id="Tracé_267-7" data-name="Tracé 267" d="M264.08,1867.191c-.582,3.138-3.874,10.571-10.459,25.437-8.878,20.044-11.988,24.265-16.921,26.369-6.705,2.86-13.4.371-15.853-.743-9.942-4.511-14.357-15.472-20.591-30.947-3.635-9.026-6.274-15.577-7.086-25.255A70.207,70.207,0,0,1,197.454,1832c2.939-7.7,6.374-12.179,13.243-21.138,10.306-13.443,15.459-20.164,21.092-20.194,11.434-.061,20.366,20.46,24.749,30.532C260.181,1829.568,267.81,1847.1,264.08,1867.191Z" fill="#8d5233"/>
        <path id="Tracé_268-7" data-name="Tracé 268" d="M254.771,1864.186c-.458,2.467-3.046,8.31-8.222,20-6.979,15.757-9.424,19.075-13.3,20.729-5.271,2.249-10.532.291-12.463-.584-7.816-3.546-11.286-12.162-16.187-24.328-2.858-7.095-4.932-12.245-5.57-19.854a55.181,55.181,0,0,1,3.368-23.627c2.311-6.052,5.011-9.574,10.41-16.617,8.1-10.568,12.153-15.852,16.581-15.875,8.989-.048,16.01,16.084,19.456,24C251.706,1834.61,257.7,1848.39,254.771,1864.186Z" fill="#da9157"/>
        <path id="Tracé_269-7" data-name="Tracé 269" d="M243.736,1855.163c-.446,8.727-1.215,23.813-10.766,31.685-1.52,1.253-7.376,6.08-13.5,3.832-3.715-1.364-6.068-4.8-6.86-5.952-1.771-2.583-2.2-4.559-4.005-11.05-3.482-12.535-3.617-11.448-3.844-13.7-.642-6.353.813-11.232,2.324-16.305a45.229,45.229,0,0,1,6.823-14.663c3.587-4.877,7.875-10.71,13.568-10.274,7.386.565,12.08,11.3,13.382,14.276C244.376,1841.051,244.084,1848.34,243.736,1855.163Z" fill="#ffd888"/>
      </g>
      <path id="Tracé_275-7" data-name="Tracé 275" d="M464.611,1818.713c-26.682-5.07-44.434-9.265-69.323-3.678s-56,24.254-68.444,23.365-36.444,22.222,0,21.333,97.778,13.333,67.556,16-37.333,24,60.444,1.778,104.678,3.555,148.339-6.222,144.487-14.222,207.408-5.333,174.92-13.333,208.7-4.444,61.333,14.222,83.555,12.444,71.023-11.584,18.623-19.125-44.13-19.986-68.709-23.541-65.629,0-90.438-4.445-74.956-15.659-100.549-14.5-92.26-2.623-111.815-6.063-41.778,5.186-64.889,12.428-83.53,17.02-121.321,12.576S484.67,1822.524,464.611,1818.713Z" fill="#a26339"/>
      <path id="Tracé_277-7" data-name="Tracé 277" d="M420.177,1830.1c-17.275.247-49.185,6.519-31.407,11.852s21.333,8.3,39.7,17.185,24.889-2.823,49.778-7.337,81.185,10.893,104.3,7.337,64-20.741,101.926-18.37,115.555-2.268,76.444-10.912-56.889-7.387-65.185-6.238-30.769,7.075-50.051,10.631-52.29,14.222-68.083,7.7-31.792,6.611-64.385.639S433.322,1829.915,420.177,1830.1Z" fill="#ab6b39"/>
      <path id="Tracé_278-7" data-name="Tracé 278" d="M830.4,1832.177c-13.479,2.4-23.111,4.389-34.667,10.417s-16.444,20.694,4,15.806,21.778-14.527,47.111-6.6,92.445-15.237,120-9.209,64.445,9.528,49.778,0-64.889-13.528-83.111-15.305S862.843,1826.4,830.4,1832.177Z" fill="#ab6b39"/>
      <path id="Tracé_279-7" data-name="Tracé 279" d="M363.288,1851.8c-6.249.766-23.845,14.152-40.367,18.6s-29.855,18.239-12.077,17.12,31.111-10.9,45.333-11.786,56.889,3.556,64.889-.889S391.732,1848.318,363.288,1851.8Z" fill="#b6703e"/>
      <path id="Tracé_280-7" data-name="Tracé 280" d="M777.535,1822.8c-14.449-1.91-42.24-2.933-33.577,3.665s66.441,14.987,96.663,16.126,64.991,7.248,55.111-4.194-64.889-17.288-80.889-17.533S790.037,1824.456,777.535,1822.8Z" fill="#b6703e"/>
      <path id="Tracé_281-7" data-name="Tracé 281" d="M1115.88,1826.468c-10.88-2.941-24.3.636-14.815,6.58s39.619,20.812,43.809,12.193S1126.547,1829.352,1115.88,1826.468Z" fill="#b6703e"/>
      <path id="Tracé_282-7" data-name="Tracé 282" d="M222.056,1881.32c-2.882.3-4.954-2.156-5.563-2.953-1.543-2.017-1.2-3.2-3.245-5.886-1.267-1.665-1.8-1.736-2.6-3.423a17.057,17.057,0,0,1-1.448-5.494,31.846,31.846,0,0,1,.447-8.191,70.575,70.575,0,0,1,2.041-9.938c1.257-4.408,1.919-6.73,3.381-8.859.838-1.22.933-.913,5.254-4.5,3.059-2.536,3.247-2.886,4.166-3.181a5.515,5.515,0,0,1,4.835.945c1.635,1.084,1.547,1.966,3.716,3.47,1.586,1.1,1.867.792,2.521,1.754.914,1.344.824,2.62,1.756,5.841.906,3.132,1.165,2.527,1.64,4.55a30.32,30.32,0,0,1,.147,10.144,30.9,30.9,0,0,1-1.524,7.615c-.546,1.519-.725,1.506-2.736,5.272-2.639,4.943-2.808,5.862-4.107,7.341a16.1,16.1,0,0,1-3.129,2.433C224.738,1880.216,223.3,1881.191,222.056,1881.32Zm3.967-46.737a6.213,6.213,0,0,0-4.631,1.062,10.548,10.548,0,0,0-3.831,4.354c-.992,1.98-.725,2.642-2.1,5.688-1.122,2.483-1.517,2.527-1.9,4.111-.421,1.729-.065,2.15-.278,5.6-.214,3.473-.612,3.646-.489,5.355.093,1.289.665,2.583,1.8,5.118.725,1.612,1.346,2.805,2.559,5.124,1.5,2.872,1.721,3.149,2.065,3.419.674.529,1.586.528,3.409.526a6.872,6.872,0,0,0,2.98-.854h0c1.088-.745,1.276-1.405,3.417-4.088,2.418-3.031,2.822-3,3.627-4.742a44.645,44.645,0,0,0,1.484-4.526,31.652,31.652,0,0,0,1.33-5.159c.112-1.1.012-1.369-.382-5.42a57.3,57.3,0,0,0-.643-6.055,15.5,15.5,0,0,0-1.64-4.55c-.914-1.548-1.921-2.2-3.9-3.433A10.19,10.19,0,0,0,226.023,1834.583Z" fill="#f8c479"/>
      <path id="Tracé_283-7" data-name="Tracé 283" d="M229.9,1853.187a8.823,8.823,0,0,1-.6,3.489,9.37,9.37,0,0,1-1.193,2.251c-.861,1.214-2.572,3.627-4.75,3.325-1.311-.182-2.2-1.265-2.988-2.224a7.8,7.8,0,0,1-1.973-4.231,10.167,10.167,0,0,1,.381-3.424c.483-2.305.757-3.611,1.653-4.441.734-.68,1.532-.711,3.06-.77a5.714,5.714,0,0,1,2.455.228A6.841,6.841,0,0,1,229.9,1853.187Z" fill="#da9157"/>
    </g>
    <g id="Groupe_117" data-name="Groupe 117" transform="translate(2608.043 1479.663)">
      <path id="Tracé_264-8" data-name="Tracé 264" d="M1188.621,1891.27c-14.81,24.68-172,2.67-245.33,0s-210.11-10.67-259.57,0-163.1,11.13-204.73,7.13c-17.33-1.66-40.27-1.94-62.98-1.16-29.61,1.03-58.82,3.86-74.67,7.8-1.21.3-2.34.61-3.39.92C312.621,1913.51,236.7,1919,236.7,1919l-4.91-128.34s71.35,11.6,116.86,13.38c7.5.3,14.31.33,19.97-.01,25.49-1.52,61.28-3.93,95.99-3.67,19.75.14,39.14,1.15,56.11,3.67,37.39,5.56,101.02,2.23,125.02.67,1.64-.11,116.21-10.3,153.55-7.63,17.85,1.27,41.79,2.24,67.9,3.93,28.49,1.84,59.57,4.53,88.1,9.4,15.32,2.62,32.5,3.2,49.91,2.67,44.72-1.34,91-10,111.38-10.43,28.74-.6,62.94-10.91,81.61,23.76S1192.621,1884.6,1188.621,1891.27Z" fill="#9a5c33"/>
      <path id="Tracé_265-8" data-name="Tracé 265" d="M271.741,1818.71c14.21,10.36,44.88,15.52,34.21,20.27s-35.09,7.42-34.21,26.09-24.3,28.73-31.4,34.29,22.95,16.82,46.95,6.6c13.41-5.71,36.38-3.76,54.05-.92-1.21.3-2.34.61-3.39.92C312.621,1913.51,236.7,1919,236.7,1919l-4.91-128.34s71.35,11.6,116.86,13.38c-11.39,6.54-23.17,11.78-30.7,10.99C299.291,1813.069,257.521,1808.36,271.741,1818.71Z" fill="#8d5233"/>
      <path id="Tracé_266-8" data-name="Tracé 266" d="M1188.621,1891.27c-14.81,24.68-172,2.67-245.33,0s-210.11-10.67-259.57,0-163.1,11.13-204.73,7.13c-17.33-1.66-40.27-1.94-62.98-1.16,34.36-8.29,76.74-17.29,93.82-15.94,30.79,2.43,82,16.17,111.73,9.97s87.89-22.2,111.47-22.2,109.89,11.14,128.74,12.23,71.58-8.23,100.55-8.23,83.63,16.4,116.97,18.2,101.28-2.13,94.66-51.6c-2.66-19.94-49.33-22.67-66.66-24.64-15.24-1.72-51.08,15.01-102.09-1.96,44.72-1.34,91-10,111.38-10.43,28.74-.6,62.94-10.91,81.61,23.76S1192.621,1884.6,1188.621,1891.27Z" fill="#8d5233"/>
      <g id="Groupe_83-8" data-name="Groupe 83">
        <path id="Tracé_267-8" data-name="Tracé 267" d="M264.08,1867.191c-.582,3.138-3.874,10.571-10.459,25.437-8.878,20.044-11.988,24.265-16.921,26.369-6.705,2.86-13.4.371-15.853-.743-9.942-4.511-14.357-15.472-20.591-30.947-3.635-9.026-6.274-15.577-7.086-25.255A70.207,70.207,0,0,1,197.454,1832c2.939-7.7,6.374-12.179,13.243-21.138,10.306-13.443,15.459-20.164,21.092-20.194,11.434-.061,20.366,20.46,24.749,30.532C260.181,1829.568,267.81,1847.1,264.08,1867.191Z" fill="#8d5233"/>
        <path id="Tracé_268-8" data-name="Tracé 268" d="M254.771,1864.186c-.458,2.467-3.046,8.31-8.222,20-6.979,15.757-9.424,19.075-13.3,20.729-5.271,2.249-10.532.291-12.463-.584-7.816-3.546-11.286-12.162-16.187-24.328-2.858-7.095-4.932-12.245-5.57-19.854a55.181,55.181,0,0,1,3.368-23.627c2.311-6.052,5.011-9.574,10.41-16.617,8.1-10.568,12.153-15.852,16.581-15.875,8.989-.048,16.01,16.084,19.456,24C251.706,1834.61,257.7,1848.39,254.771,1864.186Z" fill="#da9157"/>
        <path id="Tracé_269-8" data-name="Tracé 269" d="M243.736,1855.163c-.446,8.727-1.215,23.813-10.766,31.685-1.52,1.253-7.376,6.08-13.5,3.832-3.715-1.364-6.068-4.8-6.86-5.952-1.771-2.583-2.2-4.559-4.005-11.05-3.482-12.535-3.617-11.448-3.844-13.7-.642-6.353.813-11.232,2.324-16.305a45.229,45.229,0,0,1,6.823-14.663c3.587-4.877,7.875-10.71,13.568-10.274,7.386.565,12.08,11.3,13.382,14.276C244.376,1841.051,244.084,1848.34,243.736,1855.163Z" fill="#ffd888"/>
      </g>
      <path id="Tracé_275-8" data-name="Tracé 275" d="M464.611,1818.713c-26.682-5.07-44.434-9.265-69.323-3.678s-56,24.254-68.444,23.365-36.444,22.222,0,21.333,97.778,13.333,67.556,16-37.333,24,60.444,1.778,104.678,3.555,148.339-6.222,144.487-14.222,207.408-5.333,174.92-13.333,208.7-4.444,61.333,14.222,83.555,12.444,71.023-11.584,18.623-19.125-44.13-19.986-68.709-23.541-65.629,0-90.438-4.445-74.956-15.659-100.549-14.5-92.26-2.623-111.815-6.063-41.778,5.186-64.889,12.428-83.53,17.02-121.321,12.576S484.67,1822.524,464.611,1818.713Z" fill="#a26339"/>
      <path id="Tracé_277-8" data-name="Tracé 277" d="M420.177,1830.1c-17.275.247-49.185,6.519-31.407,11.852s21.333,8.3,39.7,17.185,24.889-2.823,49.778-7.337,81.185,10.893,104.3,7.337,64-20.741,101.926-18.37,115.555-2.268,76.444-10.912-56.889-7.387-65.185-6.238-30.769,7.075-50.051,10.631-52.29,14.222-68.083,7.7-31.792,6.611-64.385.639S433.322,1829.915,420.177,1830.1Z" fill="#ab6b39"/>
      <path id="Tracé_278-8" data-name="Tracé 278" d="M830.4,1832.177c-13.479,2.4-23.111,4.389-34.667,10.417s-16.444,20.694,4,15.806,21.778-14.527,47.111-6.6,92.445-15.237,120-9.209,64.445,9.528,49.778,0-64.889-13.528-83.111-15.305S862.843,1826.4,830.4,1832.177Z" fill="#ab6b39"/>
      <path id="Tracé_279-8" data-name="Tracé 279" d="M363.288,1851.8c-6.249.766-23.845,14.152-40.367,18.6s-29.855,18.239-12.077,17.12,31.111-10.9,45.333-11.786,56.889,3.556,64.889-.889S391.732,1848.318,363.288,1851.8Z" fill="#b6703e"/>
      <path id="Tracé_280-8" data-name="Tracé 280" d="M777.535,1822.8c-14.449-1.91-42.24-2.933-33.577,3.665s66.441,14.987,96.663,16.126,64.991,7.248,55.111-4.194-64.889-17.288-80.889-17.533S790.037,1824.456,777.535,1822.8Z" fill="#b6703e"/>
      <path id="Tracé_281-8" data-name="Tracé 281" d="M1115.88,1826.468c-10.88-2.941-24.3.636-14.815,6.58s39.619,20.812,43.809,12.193S1126.547,1829.352,1115.88,1826.468Z" fill="#b6703e"/>
      <path id="Tracé_282-8" data-name="Tracé 282" d="M222.056,1881.32c-2.882.3-4.954-2.156-5.563-2.953-1.543-2.017-1.2-3.2-3.245-5.886-1.267-1.665-1.8-1.736-2.6-3.423a17.057,17.057,0,0,1-1.448-5.494,31.846,31.846,0,0,1,.447-8.191,70.575,70.575,0,0,1,2.041-9.938c1.257-4.408,1.919-6.73,3.381-8.859.838-1.22.933-.913,5.254-4.5,3.059-2.536,3.247-2.886,4.166-3.181a5.515,5.515,0,0,1,4.835.945c1.635,1.084,1.547,1.966,3.716,3.47,1.586,1.1,1.867.792,2.521,1.754.914,1.344.824,2.62,1.756,5.841.906,3.132,1.165,2.527,1.64,4.55a30.32,30.32,0,0,1,.147,10.144,30.9,30.9,0,0,1-1.524,7.615c-.546,1.519-.725,1.506-2.736,5.272-2.639,4.943-2.808,5.862-4.107,7.341a16.1,16.1,0,0,1-3.129,2.433C224.738,1880.216,223.3,1881.191,222.056,1881.32Zm3.967-46.737a6.213,6.213,0,0,0-4.631,1.062,10.548,10.548,0,0,0-3.831,4.354c-.992,1.98-.725,2.642-2.1,5.688-1.122,2.483-1.517,2.527-1.9,4.111-.421,1.729-.065,2.15-.278,5.6-.214,3.473-.612,3.646-.489,5.355.093,1.289.665,2.583,1.8,5.118.725,1.612,1.346,2.805,2.559,5.124,1.5,2.872,1.721,3.149,2.065,3.419.674.529,1.586.528,3.409.526a6.872,6.872,0,0,0,2.98-.854h0c1.088-.745,1.276-1.405,3.417-4.088,2.418-3.031,2.822-3,3.627-4.742a44.645,44.645,0,0,0,1.484-4.526,31.652,31.652,0,0,0,1.33-5.159c.112-1.1.012-1.369-.382-5.42a57.3,57.3,0,0,0-.643-6.055,15.5,15.5,0,0,0-1.64-4.55c-.914-1.548-1.921-2.2-3.9-3.433A10.19,10.19,0,0,0,226.023,1834.583Z" fill="#f8c479"/>
      <path id="Tracé_283-8" data-name="Tracé 283" d="M229.9,1853.187a8.823,8.823,0,0,1-.6,3.489,9.37,9.37,0,0,1-1.193,2.251c-.861,1.214-2.572,3.627-4.75,3.325-1.311-.182-2.2-1.265-2.988-2.224a7.8,7.8,0,0,1-1.973-4.231,10.167,10.167,0,0,1,.381-3.424c.483-2.305.757-3.611,1.653-4.441.734-.68,1.532-.711,3.06-.77a5.714,5.714,0,0,1,2.455.228A6.841,6.841,0,0,1,229.9,1853.187Z" fill="#da9157"/>
    </g>
    <g id="Groupe_120" data-name="Groupe 120" transform="translate(2568.043 1399.663)">
      <path id="Tracé_264-9" data-name="Tracé 264" d="M1188.621,1891.27c-14.81,24.68-172,2.67-245.33,0s-210.11-10.67-259.57,0-163.1,11.13-204.73,7.13c-17.33-1.66-40.27-1.94-62.98-1.16-29.61,1.03-58.82,3.86-74.67,7.8-1.21.3-2.34.61-3.39.92C312.621,1913.51,236.7,1919,236.7,1919l-4.91-128.34s71.35,11.6,116.86,13.38c7.5.3,14.31.33,19.97-.01,25.49-1.52,61.28-3.93,95.99-3.67,19.75.14,39.14,1.15,56.11,3.67,37.39,5.56,101.02,2.23,125.02.67,1.64-.11,116.21-10.3,153.55-7.63,17.85,1.27,41.79,2.24,67.9,3.93,28.49,1.84,59.57,4.53,88.1,9.4,15.32,2.62,32.5,3.2,49.91,2.67,44.72-1.34,91-10,111.38-10.43,28.74-.6,62.94-10.91,81.61,23.76S1192.621,1884.6,1188.621,1891.27Z" fill="#9a5c33"/>
      <path id="Tracé_265-9" data-name="Tracé 265" d="M271.741,1818.71c14.21,10.36,44.88,15.52,34.21,20.27s-35.09,7.42-34.21,26.09-24.3,28.73-31.4,34.29,22.95,16.82,46.95,6.6c13.41-5.71,36.38-3.76,54.05-.92-1.21.3-2.34.61-3.39.92C312.621,1913.51,236.7,1919,236.7,1919l-4.91-128.34s71.35,11.6,116.86,13.38c-11.39,6.54-23.17,11.78-30.7,10.99C299.291,1813.069,257.521,1808.36,271.741,1818.71Z" fill="#8d5233"/>
      <path id="Tracé_266-9" data-name="Tracé 266" d="M1188.621,1891.27c-14.81,24.68-172,2.67-245.33,0s-210.11-10.67-259.57,0-163.1,11.13-204.73,7.13c-17.33-1.66-40.27-1.94-62.98-1.16,34.36-8.29,76.74-17.29,93.82-15.94,30.79,2.43,82,16.17,111.73,9.97s87.89-22.2,111.47-22.2,109.89,11.14,128.74,12.23,71.58-8.23,100.55-8.23,83.63,16.4,116.97,18.2,101.28-2.13,94.66-51.6c-2.66-19.94-49.33-22.67-66.66-24.64-15.24-1.72-51.08,15.01-102.09-1.96,44.72-1.34,91-10,111.38-10.43,28.74-.6,62.94-10.91,81.61,23.76S1192.621,1884.6,1188.621,1891.27Z" fill="#8d5233"/>
      <g id="Groupe_83-9" data-name="Groupe 83">
        <path id="Tracé_267-9" data-name="Tracé 267" d="M264.08,1867.191c-.582,3.138-3.874,10.571-10.459,25.437-8.878,20.044-11.988,24.265-16.921,26.369-6.705,2.86-13.4.371-15.853-.743-9.942-4.511-14.357-15.472-20.591-30.947-3.635-9.026-6.274-15.577-7.086-25.255A70.207,70.207,0,0,1,197.454,1832c2.939-7.7,6.374-12.179,13.243-21.138,10.306-13.443,15.459-20.164,21.092-20.194,11.434-.061,20.366,20.46,24.749,30.532C260.181,1829.568,267.81,1847.1,264.08,1867.191Z" fill="#8d5233"/>
        <path id="Tracé_268-9" data-name="Tracé 268" d="M254.771,1864.186c-.458,2.467-3.046,8.31-8.222,20-6.979,15.757-9.424,19.075-13.3,20.729-5.271,2.249-10.532.291-12.463-.584-7.816-3.546-11.286-12.162-16.187-24.328-2.858-7.095-4.932-12.245-5.57-19.854a55.181,55.181,0,0,1,3.368-23.627c2.311-6.052,5.011-9.574,10.41-16.617,8.1-10.568,12.153-15.852,16.581-15.875,8.989-.048,16.01,16.084,19.456,24C251.706,1834.61,257.7,1848.39,254.771,1864.186Z" fill="#da9157"/>
        <path id="Tracé_269-9" data-name="Tracé 269" d="M243.736,1855.163c-.446,8.727-1.215,23.813-10.766,31.685-1.52,1.253-7.376,6.08-13.5,3.832-3.715-1.364-6.068-4.8-6.86-5.952-1.771-2.583-2.2-4.559-4.005-11.05-3.482-12.535-3.617-11.448-3.844-13.7-.642-6.353.813-11.232,2.324-16.305a45.229,45.229,0,0,1,6.823-14.663c3.587-4.877,7.875-10.71,13.568-10.274,7.386.565,12.08,11.3,13.382,14.276C244.376,1841.051,244.084,1848.34,243.736,1855.163Z" fill="#ffd888"/>
      </g>
      <path id="Tracé_275-9" data-name="Tracé 275" d="M464.611,1818.713c-26.682-5.07-44.434-9.265-69.323-3.678s-56,24.254-68.444,23.365-36.444,22.222,0,21.333,97.778,13.333,67.556,16-37.333,24,60.444,1.778,104.678,3.555,148.339-6.222,144.487-14.222,207.408-5.333,174.92-13.333,208.7-4.444,61.333,14.222,83.555,12.444,71.023-11.584,18.623-19.125-44.13-19.986-68.709-23.541-65.629,0-90.438-4.445-74.956-15.659-100.549-14.5-92.26-2.623-111.815-6.063-41.778,5.186-64.889,12.428-83.53,17.02-121.321,12.576S484.67,1822.524,464.611,1818.713Z" fill="#a26339"/>
      <path id="Tracé_277-9" data-name="Tracé 277" d="M420.177,1830.1c-17.275.247-49.185,6.519-31.407,11.852s21.333,8.3,39.7,17.185,24.889-2.823,49.778-7.337,81.185,10.893,104.3,7.337,64-20.741,101.926-18.37,115.555-2.268,76.444-10.912-56.889-7.387-65.185-6.238-30.769,7.075-50.051,10.631-52.29,14.222-68.083,7.7-31.792,6.611-64.385.639S433.322,1829.915,420.177,1830.1Z" fill="#ab6b39"/>
      <path id="Tracé_278-9" data-name="Tracé 278" d="M830.4,1832.177c-13.479,2.4-23.111,4.389-34.667,10.417s-16.444,20.694,4,15.806,21.778-14.527,47.111-6.6,92.445-15.237,120-9.209,64.445,9.528,49.778,0-64.889-13.528-83.111-15.305S862.843,1826.4,830.4,1832.177Z" fill="#ab6b39"/>
      <path id="Tracé_279-9" data-name="Tracé 279" d="M363.288,1851.8c-6.249.766-23.845,14.152-40.367,18.6s-29.855,18.239-12.077,17.12,31.111-10.9,45.333-11.786,56.889,3.556,64.889-.889S391.732,1848.318,363.288,1851.8Z" fill="#b6703e"/>
      <path id="Tracé_280-9" data-name="Tracé 280" d="M777.535,1822.8c-14.449-1.91-42.24-2.933-33.577,3.665s66.441,14.987,96.663,16.126,64.991,7.248,55.111-4.194-64.889-17.288-80.889-17.533S790.037,1824.456,777.535,1822.8Z" fill="#b6703e"/>
      <path id="Tracé_281-9" data-name="Tracé 281" d="M1115.88,1826.468c-10.88-2.941-24.3.636-14.815,6.58s39.619,20.812,43.809,12.193S1126.547,1829.352,1115.88,1826.468Z" fill="#b6703e"/>
      <path id="Tracé_282-9" data-name="Tracé 282" d="M222.056,1881.32c-2.882.3-4.954-2.156-5.563-2.953-1.543-2.017-1.2-3.2-3.245-5.886-1.267-1.665-1.8-1.736-2.6-3.423a17.057,17.057,0,0,1-1.448-5.494,31.846,31.846,0,0,1,.447-8.191,70.575,70.575,0,0,1,2.041-9.938c1.257-4.408,1.919-6.73,3.381-8.859.838-1.22.933-.913,5.254-4.5,3.059-2.536,3.247-2.886,4.166-3.181a5.515,5.515,0,0,1,4.835.945c1.635,1.084,1.547,1.966,3.716,3.47,1.586,1.1,1.867.792,2.521,1.754.914,1.344.824,2.62,1.756,5.841.906,3.132,1.165,2.527,1.64,4.55a30.32,30.32,0,0,1,.147,10.144,30.9,30.9,0,0,1-1.524,7.615c-.546,1.519-.725,1.506-2.736,5.272-2.639,4.943-2.808,5.862-4.107,7.341a16.1,16.1,0,0,1-3.129,2.433C224.738,1880.216,223.3,1881.191,222.056,1881.32Zm3.967-46.737a6.213,6.213,0,0,0-4.631,1.062,10.548,10.548,0,0,0-3.831,4.354c-.992,1.98-.725,2.642-2.1,5.688-1.122,2.483-1.517,2.527-1.9,4.111-.421,1.729-.065,2.15-.278,5.6-.214,3.473-.612,3.646-.489,5.355.093,1.289.665,2.583,1.8,5.118.725,1.612,1.346,2.805,2.559,5.124,1.5,2.872,1.721,3.149,2.065,3.419.674.529,1.586.528,3.409.526a6.872,6.872,0,0,0,2.98-.854h0c1.088-.745,1.276-1.405,3.417-4.088,2.418-3.031,2.822-3,3.627-4.742a44.645,44.645,0,0,0,1.484-4.526,31.652,31.652,0,0,0,1.33-5.159c.112-1.1.012-1.369-.382-5.42a57.3,57.3,0,0,0-.643-6.055,15.5,15.5,0,0,0-1.64-4.55c-.914-1.548-1.921-2.2-3.9-3.433A10.19,10.19,0,0,0,226.023,1834.583Z" fill="#f8c479"/>
      <path id="Tracé_283-9" data-name="Tracé 283" d="M229.9,1853.187a8.823,8.823,0,0,1-.6,3.489,9.37,9.37,0,0,1-1.193,2.251c-.861,1.214-2.572,3.627-4.75,3.325-1.311-.182-2.2-1.265-2.988-2.224a7.8,7.8,0,0,1-1.973-4.231,10.167,10.167,0,0,1,.381-3.424c.483-2.305.757-3.611,1.653-4.441.734-.68,1.532-.711,3.06-.77a5.714,5.714,0,0,1,2.455.228A6.841,6.841,0,0,1,229.9,1853.187Z" fill="#da9157"/>
    </g>
  </g>
</svg>
